<?xml version="1.0" encoding="utf-8"?>
<!-- Generator: Adobe Illustrator 19.1.0, SVG Export Plug-In . SVG Version: 6.00 Build 0)  -->
<svg version="1.1" xmlns="http://www.w3.org/2000/svg" xmlns:xlink="http://www.w3.org/1999/xlink" x="0px" y="0px"
	 viewBox="0 0 500 353.5" enable-background="new 0 0 500 353.5" xml:space="preserve">
<g id="Calque_1" display="none">
	<g display="inline">
		<g>
			<path fill="#FFFFFF" d="M100.5,288v-40.9c-5.5,7.5-11.2,15.1-15.5,21.1l-15.4-21.1V288h-18v-73.9h16L85.1,238l17.3-23.9h16V288
				H100.5z"/>
			<path fill="#FFFFFF" d="M208.1,250.6c0,21.1-17.4,38.3-38.5,38.3c-21.2,0-38.4-17.2-38.4-38.3c0-21.3,17.2-38.5,38.4-38.5
				C190.7,212.1,208.1,229.4,208.1,250.6z M190,250.6c0-11.3-9-20.8-20.3-20.8c-11.3,0-20.4,9.4-20.4,20.8
				c0,11.2,9.1,20.4,20.4,20.4C181,271.1,190,261.8,190,250.6z"/>
			<path fill="#FFFFFF" d="M226.7,214.1l16.7,43.6l16.9-43.6h19.2L251.1,288h-15.3l-28.4-73.9H226.7z"/>
			<path fill="#FFFFFF" d="M292,214.1H310V288H292V214.1z"/>
			<path fill="#FFFFFF" d="M330.8,214.1h50.3v17.6h-32.3v6.3H377v18h-28.2v14.1h31.5V288h-49.6V214.1z"/>
			<path fill="#FFFFFF" d="M413.9,287.8c-7.5-1.6-14.3-5-23.1-12.6l11.8-13.6c6.5,5.7,10.4,7.9,14.9,8.7c1.3,0.3,2.7,0.5,3.9,0.5
				c2.1,0,3.9-0.4,5.4-1.1c1.2-0.6,3.4-2,3.4-4.8c0-2.9-5.4-4.7-10.1-5.6c-2.1-0.4-12.2-2.6-16.4-5.1c-7.1-4.1-10.7-10.5-10.7-18.4
				c0-4.4,1.5-8.5,3.8-12c2.4-3.3,5.7-5.9,9.5-7.7l-0.1,0.1c3.9-1.9,8.4-2.8,12.7-2.8c1.8,0,3.4,0.1,5.5,0.4
				c6.6,1.1,12.8,3.8,21.3,10.9l-11.4,13.7c-7.7-6.3-11.6-7.3-15.6-7.3c-2,0-3.5,0.4-4.8,1c-2,0.8-3,2.3-3,3.6
				c0,2.8,3.7,4.2,9.8,5.4c0.6,0.2,1.3,0.2,2.1,0.4c4,0.9,10.1,2.2,14,4.5h-0.1c7.5,4.1,11.4,10.7,11.4,18.8c0,4.8-1.2,9.2-3.9,13
				c-2.4,3.4-5.9,5.9-9.9,7.9c-4.1,2.2-8.4,2.8-13.1,2.8C418.9,288.6,416.2,288.3,413.9,287.8z"/>
		</g>
		<g>
			<path fill="#FFFFFF" d="M87.6,334.9l4.2,3.1c-4.2,5.6-10.7,8.9-17.6,8.9c-12.2,0-22.2-9.9-22.2-22.2c0-12.2,9.9-22.1,22.2-22.1
				c7,0,13.5,3.3,17.7,8.9l-4.2,3.1c-3.2-4.3-8.1-6.8-13.5-6.8c-9.4,0-16.9,7.5-16.9,16.9c0,9.4,7.5,16.9,16.9,16.9
				C79.4,341.6,84.4,339.1,87.6,334.9z"/>
			<path fill="#FFFFFF" d="M140.3,324.7c0,12.2-10,22-22.2,22c-12.2,0-22.1-9.9-22.1-22c0-12.2,9.9-22.2,22.1-22.2
				C130.4,302.6,140.3,312.5,140.3,324.7z M134.9,324.7c0-9.3-7.5-16.9-16.8-16.9s-16.8,7.7-16.8,16.9c0,9.2,7.5,16.8,16.8,16.8
				S134.9,333.9,134.9,324.7z"/>
			<path fill="#FFFFFF" d="M178.1,303.9v26.8c0,8.9-7.2,16.1-16.2,16.1c-8.9,0-16.1-7.2-16.1-16.1v-26.8h5.3v26.8
				c0,6,4.9,10.9,10.8,10.9c6,0,10.8-4.9,10.8-10.9v-26.8H178.1z"/>
			<path fill="#FFFFFF" d="M192.9,312.7v33.4h-5.3v-42.3h5.8l22.6,33.4v-33.4h5.3v42.3h-5.8L192.9,312.7z"/>
			<path fill="#FFFFFF" d="M240,309.1h-11.2v-5.2h27.7v5.2h-11.2v37.1H240V309.1z"/>
			<path fill="#FFFFFF" d="M262,303.9h13.7c12,0,21.7,9.5,21.7,21.1c0,11.6-9.7,21.2-21.7,21.2H262V303.9z M292.2,325
				c0-8.7-7.4-16-16.5-16h-8.4v32h8.4C284.8,341,292.2,333.7,292.2,325z"/>
			<path fill="#FFFFFF" d="M346.3,324.7c0,12.2-10,22-22.2,22c-12.2,0-22.1-9.9-22.1-22c0-12.2,9.9-22.2,22.1-22.2
				C336.4,302.6,346.3,312.5,346.3,324.7z M340.9,324.7c0-9.3-7.5-16.9-16.8-16.9c-9.3,0-16.8,7.7-16.8,16.9
				c0,9.2,7.5,16.8,16.8,16.8C333.5,341.5,340.9,333.9,340.9,324.7z"/>
			<path fill="#FFFFFF" d="M377.7,324.4l-12.4,21.8h-5.7l-11.8-42.3h5.6l9.8,35.3l11.6-20.3h6l11.5,20.3l9.9-35.3h5.6l-11.8,42.3
				h-5.7L377.7,324.4z"/>
			<path fill="#FFFFFF" d="M419.6,312.7v33.4h-5.3v-42.3h5.8l22.6,33.4v-33.4h5.3v42.3h-5.8L419.6,312.7z"/>
		</g>
		<g>
			<path fill="#FFFFFF" d="M94.7,200.4v-73.9h26.5c5.1,0,9.9,2,13.5,5.6c3.5,3.6,5.6,8.3,5.6,13.4c0,10.5-8.6,18.9-19.1,18.9h-12.7
				v36H94.7z M121.2,150.8c2.9,0,5.2-2.4,5.2-5.3s-2.4-5.4-5.2-5.4h-12.7v10.7H121.2z"/>
			<path fill="#FFFFFF" d="M391.5,200.4v-36h-12.7c-10.5,0-19.1-8.4-19.1-18.9c0-5.1,2.1-9.8,5.6-13.4c3.6-3.6,8.4-5.6,13.5-5.6
				h26.5v73.9H391.5z M391.5,150.8v-10.7h-12.7c-2.8,0-5.2,2.5-5.2,5.4s2.3,5.3,5.2,5.3H391.5z"/>
		</g>
		<g>
			<g>
				<path fill="#FFFFFF" d="M249.8,7.4c-53.2,0-96.5,43.3-96.5,96.7c0,53.2,43.3,96.2,96.5,96.2c53.2,0,96.7-43.1,96.7-96.2
					C346.5,50.7,302.9,7.4,249.8,7.4z M249.9,188c-46.4,0-84.1-37.7-84.1-84.1c0-46.4,37.7-84.1,84.1-84.1
					c46.4,0,84.1,37.7,84.1,84.1C334,150.3,296.3,188,249.9,188z"/>
			</g>
			<path fill="#FFFFFF" d="M250,25.1c-43.5,0-78.7,35.3-78.7,78.7s35.3,78.7,78.7,78.7s78.7-35.3,78.7-78.7S293.5,25.1,250,25.1z
				 M294.6,140.4c0.9-1.5,9.2-15.5-1.6-17.5s-18.9,12.5-18.9,12.5s-3.8-12.6-12.3-7.5c-8.5,5.2-11.4,19.8-11.4,19.8
				c-1.8-7.8-5.2-17.9-12.7-20.6c-7.5-2.7-10.5,8.4-10.5,8.4c-3.2-7.2-14.1-16.4-21.4-11.6c-7.3,4.9,1.2,17.2,1.2,17.2
				c-18-8.5-38.1-25-26.7-46.6c11.4-21.6,43.9-27.1,43.9-27.1c-7,10.3-6.7,13.8-7.1,18.7c-0.4,4.9,3.4,13.9,11.2,14.2
				s10-11.2,10-11.2l2.1-21.7l4.2,5.6h11.8l4.4-5.6c0,0,0.5,7.2,2,21.1c1.5,14.3,9,12,11.1,11.7c2.1-0.2,6.8-0.7,9.8-10.3
				c3-9.6-6.5-22.3-6.5-22.3c14.3,2.7,43.9,14.5,45.6,37.7C324.6,128.5,294.6,140.4,294.6,140.4z"/>
		</g>
	</g>
</g>
<g id="Calque_1_-_copie">
	<path fill="#FFFFFF" d="M346.6,102.6c0,53.2-43.6,96.2-96.7,96.2c-53.2,0-96.5-43.1-96.5-96.2c0-53.4,43.3-96.7,96.5-96.7
		C303,5.9,346.6,49.2,346.6,102.6z M323,102.6c0-40.5-32.7-73.9-73.1-73.9c-40.5,0-73.1,33.5-73.1,73.9c0,40.2,32.7,73.4,73.1,73.4
		C290.3,176,323,142.8,323,102.6z"/>
	<g>
		<path fill="#FFFFFF" d="M94.7,198.8V125h26.5c5.1,0,9.9,2,13.5,5.6c3.5,3.6,5.6,8.3,5.6,13.4c0,10.5-8.6,18.9-19.1,18.9h-12.7v36
			H94.7z M121.2,149.2c2.9,0,5.2-2.4,5.2-5.3s-2.4-5.4-5.2-5.4h-12.7v10.7H121.2z"/>
		<path fill="#FFFFFF" d="M391.5,198.8v-36h-12.7c-10.5,0-19.1-8.4-19.1-18.9c0-5.1,2.1-9.8,5.6-13.4c3.6-3.6,8.4-5.6,13.5-5.6h26.5
			v73.9H391.5z M391.5,149.2v-10.7h-12.7c-2.8,0-5.2,2.5-5.2,5.4s2.3,5.3,5.2,5.3H391.5z"/>
	</g>
	<g>
		<path fill="#FFFFFF" d="M100.5,288v-40.9c-5.5,7.5-11.2,15.1-15.5,21.1l-15.4-21.1V288h-18v-73.9h16L85.1,238l17.3-23.9h16V288
			H100.5z"/>
		<path fill="#FFFFFF" d="M208.1,250.6c0,21.1-17.4,38.3-38.5,38.3c-21.2,0-38.4-17.2-38.4-38.3c0-21.3,17.2-38.5,38.4-38.5
			C190.7,212.1,208.1,229.4,208.1,250.6z M190,250.6c0-11.3-9-20.8-20.3-20.8c-11.3,0-20.4,9.4-20.4,20.8c0,11.2,9.1,20.4,20.4,20.4
			C181,271.1,190,261.8,190,250.6z"/>
		<path fill="#FFFFFF" d="M226.7,214.1l16.7,43.6l16.9-43.6h19.2L251.1,288h-15.3l-28.4-73.9H226.7z"/>
		<path fill="#FFFFFF" d="M292,214.1H310V288H292V214.1z"/>
		<path fill="#FFFFFF" d="M330.8,214.1h50.3v17.6h-32.3v6.3H377v18h-28.2v14.1h31.5V288h-49.6V214.1z"/>
		<path fill="#FFFFFF" d="M413.9,287.8c-7.5-1.6-14.3-5-23.1-12.6l11.8-13.6c6.5,5.7,10.4,7.9,14.9,8.7c1.3,0.3,2.7,0.5,3.9,0.5
			c2.1,0,3.9-0.4,5.4-1.1c1.2-0.6,3.4-2,3.4-4.8c0-2.9-5.4-4.7-10.1-5.6c-2.1-0.4-12.2-2.6-16.4-5.1c-7.1-4.1-10.7-10.5-10.7-18.4
			c0-4.4,1.5-8.5,3.8-12c2.4-3.3,5.7-5.9,9.5-7.7l-0.1,0.1c3.9-1.9,8.4-2.8,12.7-2.8c1.8,0,3.4,0.1,5.5,0.4
			c6.6,1.1,12.8,3.8,21.3,10.9l-11.4,13.7c-7.7-6.3-11.6-7.3-15.6-7.3c-2,0-3.5,0.4-4.8,1c-2,0.8-3,2.3-3,3.6c0,2.8,3.7,4.2,9.8,5.4
			c0.6,0.2,1.3,0.2,2.1,0.4c4,0.9,10.1,2.2,14,4.5h-0.1c7.5,4.1,11.4,10.7,11.4,18.8c0,4.8-1.2,9.2-3.9,13c-2.4,3.4-5.9,5.9-9.9,7.9
			c-4.1,2.2-8.4,2.8-13.1,2.8C418.9,288.6,416.2,288.3,413.9,287.8z"/>
	</g>
	<g>
		<path fill="#FFFFFF" d="M87.6,334.9l4.2,3.1c-4.2,5.6-10.7,8.9-17.6,8.9c-12.2,0-22.2-9.9-22.2-22.2c0-12.2,9.9-22.1,22.2-22.1
			c7,0,13.5,3.3,17.7,8.9l-4.2,3.1c-3.2-4.3-8.1-6.8-13.5-6.8c-9.4,0-16.9,7.5-16.9,16.9c0,9.4,7.5,16.9,16.9,16.9
			C79.4,341.6,84.4,339.1,87.6,334.9z"/>
		<path fill="#FFFFFF" d="M140.3,324.7c0,12.2-10,22-22.2,22c-12.2,0-22.1-9.9-22.1-22c0-12.2,9.9-22.2,22.1-22.2
			C130.4,302.6,140.3,312.5,140.3,324.7z M134.9,324.7c0-9.3-7.5-16.9-16.8-16.9s-16.8,7.7-16.8,16.9c0,9.2,7.5,16.8,16.8,16.8
			S134.9,333.9,134.9,324.7z"/>
		<path fill="#FFFFFF" d="M178.1,303.9v26.8c0,8.9-7.2,16.1-16.2,16.1c-8.9,0-16.1-7.2-16.1-16.1v-26.8h5.3v26.8
			c0,6,4.9,10.9,10.8,10.9c6,0,10.8-4.9,10.8-10.9v-26.8H178.1z"/>
		<path fill="#FFFFFF" d="M192.9,312.7v33.4h-5.3v-42.3h5.8l22.6,33.4v-33.4h5.3v42.3h-5.8L192.9,312.7z"/>
		<path fill="#FFFFFF" d="M240,309.1h-11.2v-5.2h27.7v5.2h-11.2v37.1H240V309.1z"/>
		<path fill="#FFFFFF" d="M262,303.9h13.7c12,0,21.7,9.5,21.7,21.1c0,11.6-9.7,21.2-21.7,21.2H262V303.9z M292.2,325
			c0-8.7-7.4-16-16.5-16h-8.4v32h8.4C284.8,341,292.2,333.7,292.2,325z"/>
		<path fill="#FFFFFF" d="M346.3,324.7c0,12.2-10,22-22.2,22c-12.2,0-22.1-9.9-22.1-22c0-12.2,9.9-22.2,22.1-22.2
			C336.4,302.6,346.3,312.5,346.3,324.7z M340.9,324.7c0-9.3-7.5-16.9-16.8-16.9c-9.3,0-16.8,7.7-16.8,16.9
			c0,9.2,7.5,16.8,16.8,16.8C333.5,341.5,340.9,333.9,340.9,324.7z"/>
		<path fill="#FFFFFF" d="M377.7,324.4l-12.4,21.8h-5.7l-11.8-42.3h5.6l9.8,35.3l11.6-20.3h6l11.5,20.3l9.9-35.3h5.6l-11.8,42.3
			h-5.7L377.7,324.4z"/>
		<path fill="#FFFFFF" d="M419.6,312.7v33.4h-5.3v-42.3h5.8l22.6,33.4v-33.4h5.3v42.3h-5.8L419.6,312.7z"/>
	</g>
</g>
</svg>
