<?xml version="1.0" encoding="utf-8"?>
<!-- Generator: Adobe Illustrator 19.1.0, SVG Export Plug-In . SVG Version: 6.00 Build 0)  -->
<svg version="1.1" xmlns="http://www.w3.org/2000/svg" xmlns:xlink="http://www.w3.org/1999/xlink" x="0px" y="0px"
	 viewBox="0 0 1433.8 1595.9" enable-background="new 0 0 1433.8 1595.9" xml:space="preserve">
<g id="Calque_2">
</g>
<g id="PSD_Black_xA0_Bild_1_">
	<g>
		<path fill="#FFFFFF" d="M1434,706.8c0,2.9,0,5.8,0,8.6c-13.7-0.3-27.4-0.1-41.1-0.1c-13.8,0-27.6,0-41.4,0c-13.7,0-27.5,0-41.2,0
			c-13.7,0-27.5,0-41.2,0c-13.8,0-27.6,0-41.4,0c-13.7,0-27.5,0-41.2,0c-13.7,0-27.5,0-41.2,0c-13.8,0-27.6,0-41.4,0
			c-13.7,0-27.4,0-41.1,0c-13.7,0-27.3,0-41,0c-3.2,0-6.5,0-9.7-0.1c-1.5-3.4-2-7.2-2.8-10.8c-0.9-3.9-1.8-7.7-2.8-11.6
			c-2-7.7-4.1-15.3-6.5-22.8c-1.4-4.3-2.8-8.5-4.3-12.7C950.7,530.1,847,432.1,717.5,394.2c-20.9-6.1-42.2-10.6-63.7-13.3
			c-3-0.4-6.1-0.7-9.2-1c-1.5-0.2-3.1-0.3-4.6-0.4c-1.4-0.1-3-0.1-4.4-0.5c-1-0.3-1.9-1-3.1-1.5
			C495.2,489.5,357.9,601.6,220.9,713.5c-2.7,16.7-3.7,27.4-3,32.5c1.7-0.8,3.1-2.3,4.6-3.5c1.7-1.4,3.5-2.9,5.2-4.3
			c3.4-2.8,6.9-5.6,10.3-8.4c6.9-5.7,13.9-11.3,20.8-17c13.9-11.3,27.8-22.7,41.7-34.1c13.9-11.3,27.7-22.7,41.6-34
			c13.9-11.4,27.9-22.7,41.8-34.1c13.9-11.3,27.7-22.7,41.6-34c13.9-11.4,27.8-22.7,41.8-34.1c13.9-11.4,27.8-22.7,41.8-34.1
			c13.9-11.3,27.7-22.6,41.6-34c13.9-11.4,27.8-22.7,41.8-34.1c13.9-11.3,27.8-22.7,41.6-34c1.6-1.3,3.3-2.6,4.8-4
			c1.2-1,2.3-2.1,4-2.5c4.5,11.2,9,22.3,13.6,33.6C509.2,553.9,362,674,214.7,794.3c0.1,9.4,0.3,18.7,0.5,27.9
			c0,0.2,0.3,0.5,0.7,0.9c3.7-2.1,6.7-5.1,10-7.8c3.6-2.9,7.2-5.8,10.8-8.8c7.4-6,14.7-12,22.1-18c14.6-11.9,29.3-23.9,43.9-35.8
			c14.8-12.1,29.5-24.1,44.3-36.2c14.7-12,29.5-24,44.2-36c14.7-12,29.4-24,44.2-36.1c14.6-11.9,29.3-23.9,43.9-35.8
			c14.8-12.1,29.6-24.1,44.3-36.2c14.6-11.9,29.2-23.9,43.9-35.8c14.7-12,29.4-23.9,44-35.9c14.6-11.9,29.2-23.9,43.8-35.8
			c3.4-2.7,6.7-5.7,10.3-8.1c2,3.2,11.9,27.2,13.9,33.9c-15,12.3-30.1,24.6-45.1,36.8c-15,12.2-29.9,24.4-44.9,36.6
			c-15,12.3-30,24.5-45.1,36.8c-15,12.3-30.1,24.5-45.1,36.8c-15,12.3-30.1,24.5-45.1,36.8c-15,12.2-30,24.5-45,36.7
			c-14.9,12.2-29.9,24.4-44.8,36.6c-15.1,12.3-30.1,24.6-45.2,36.9c-15,12.2-29.9,24.4-44.9,36.7c-15,12.3-30,24.5-45,36.8
			c-3.7,3-7.3,6-11,9c0.2,4.8,0.8,9.7,1.4,14.5c0.3,2.3,0.6,4.6,0.9,6.9c0.1,1.1,0.2,2.3,0.4,3.4c0.2,0.9,0.6,1.7,0.9,2.5
			c15.1-12.1,30-24.4,45-36.7c15.3-12.5,30.5-25,45.8-37.4c15.2-12.4,30.5-24.9,45.7-37.3c15.2-12.4,30.5-24.9,45.7-37.3
			c15.2-12.4,30.5-24.9,45.7-37.3c15.3-12.5,30.6-24.9,45.8-37.4c15.2-12.4,30.5-24.9,45.7-37.3c15.2-12.4,30.4-24.9,45.7-37.3
			c15.2-12.4,30.5-24.9,45.7-37.3c15-12.2,30-24.5,45-36.7c3.6-3,7.3-5.9,11-8.9c2.6,5.6,4.8,11.4,7.1,17.1
			c2.3,5.7,4.8,11.2,6.7,17.1c-15.4,12.6-30.8,25.2-46.3,37.8c-15.5,12.6-30.9,25.2-46.4,37.9c-15.4,12.6-30.9,25.2-46.3,37.8
			c-15.4,12.6-30.8,25.2-46.3,37.8c-15.5,12.6-31,25.3-46.4,37.9c-15.5,12.6-31,25.3-46.5,37.9c-15.4,12.6-30.8,25.1-46.1,37.7
			c-15.5,12.6-30.9,25.2-46.4,37.8c-15.4,12.6-30.8,25.1-46.2,37.7c-15.3,12.5-30.7,25-46.1,37.6c-3.8,3.1-7.5,6.2-11.3,9.2
			c0.9,4.1,1.8,8.1,2.8,12.2c0.9,3.9,1.6,8,2.9,11.8c0.1,0.2,0.4,0.4,0.9,0.9c15.6-12.7,31.1-25.4,46.6-38
			c15.5-12.6,30.9-25.2,46.4-37.9c15.5-12.7,31-25.3,46.6-38c15.5-12.7,31-25.4,46.6-38c15.5-12.6,31-25.3,46.4-37.9
			c15.6-12.7,31.2-25.4,46.7-38.2c15.5-12.6,31-25.3,46.4-37.9c15.5-12.7,31-25.3,46.6-38c15.5-12.6,31-25.3,46.5-37.9
			c15.5-12.6,30.9-25.3,46.4-37.9c3.8-3.1,7.5-6.1,11.3-9.2c2.1,3.2,12.8,29.4,13.9,34.1C565.2,735.5,405,866.3,244.7,997.1
			c2.4,8,4.9,15.7,7.9,23.5c3.9-2.6,7.4-5.8,11.1-8.7c3.9-3.2,7.8-6.4,11.8-9.6c7.9-6.4,15.7-12.8,23.6-19.3
			c15.7-12.8,31.4-25.7,47.2-38.5c15.7-12.8,31.4-25.6,47.1-38.5c15.8-12.9,31.5-25.7,47.2-38.6c15.7-12.8,31.3-25.6,47-38.3
			c15.8-12.9,31.5-25.7,47.3-38.6c15.7-12.8,31.4-25.6,47.1-38.4c15.7-12.8,31.4-25.6,47.1-38.5c15.7-12.8,31.4-25.7,47.1-38.5
			c15.7-12.8,31.3-25.7,47.1-38.4c3.7-3,7.4-6.2,11.3-9c2.4,3.7,13.1,30.4,13.7,33.9c-0.6,0.9-1.5,1.5-2.3,2.1c-1,0.8-2,1.6-2.9,2.4
			c-2,1.6-4,3.3-6,4.9c-3.9,3.2-7.8,6.4-11.8,9.6c-7.9,6.5-15.8,12.9-23.7,19.4c-15.7,12.9-31.5,25.7-47.2,38.6
			c-15.7,12.9-31.5,25.7-47.2,38.6c-15.8,12.9-31.6,25.8-47.4,38.7c-15.7,12.9-31.5,25.7-47.2,38.6c-15.7,12.9-31.5,25.7-47.2,38.6
			c-15.8,12.9-31.6,25.8-47.4,38.7c-15.7,12.9-31.5,25.7-47.2,38.6c-15.7,12.9-31.5,25.7-47.2,38.6c-15.8,12.9-31.6,25.8-47.4,38.7
			c-1.9,1.5-3.7,3-5.6,4.6c-0.9,0.7-1.8,1.4-2.7,2.2c-0.7,0.6-0.8,1.1-1.1,1.9c2.9,6.7,5.9,13.9,9.5,21.1
			c7.9-5.9,15.5-12.4,23.1-18.7c7.8-6.4,15.7-12.8,23.5-19.2c15.8-12.9,31.5-25.7,47.3-38.6c15.8-12.9,31.6-25.8,47.4-38.7
			c15.8-12.9,31.6-25.8,47.4-38.7c15.7-12.9,31.5-25.7,47.2-38.6c15.8-12.9,31.6-25.8,47.4-38.7c15.7-12.8,31.5-25.7,47.2-38.5
			c15.8-12.9,31.6-25.8,47.3-38.7c15.8-12.9,31.6-25.8,47.3-38.6c15.7-12.8,31.4-25.7,47.2-38.5c1.8-1.5,3.7-3,5.5-4.5
			c1.3-1.1,2.6-2.6,4.4-2.5c4.5,11,8.9,22.1,13.4,33.3c-7.5,6.4-15.2,12.6-22.9,18.8c-7.8,6.4-15.7,12.8-23.5,19.2
			c-15.7,12.8-31.5,25.7-47.2,38.5c-15.7,12.8-31.4,25.6-47.1,38.4c-15.7,12.8-31.4,25.6-47.1,38.4c-15.7,12.8-31.5,25.7-47.2,38.5
			c-15.7,12.9-31.5,25.7-47.2,38.6c-15.7,12.8-31.4,25.6-47.1,38.4c-15.7,12.9-31.5,25.7-47.2,38.6c-15.7,12.9-31.5,25.7-47.2,38.6
			c-15.7,12.8-31.4,25.6-47,38.4c-1.9,1.5-3.7,3.1-5.6,4.6c-1.2,0.9-2.6,1.7-2.8,3.4c1.9,3.5,3.8,7.1,5.8,10.6
			c0.9,1.6,1.9,3.2,2.7,4.8c0.8,1.5,1.7,3.1,3,4.3c15.5-12.6,30.9-25.2,46.4-37.8c15.5-12.6,31-25.3,46.5-37.9
			c15.6-12.7,31.2-25.5,46.8-38.2c15.5-12.6,31-25.3,46.5-37.9c15.6-12.7,31.2-25.5,46.8-38.2c15.5-12.7,31-25.3,46.5-38
			c15.6-12.7,31.2-25.5,46.8-38.2c15.5-12.6,31-25.3,46.5-37.9c15.6-12.7,31.2-25.5,46.8-38.2c15.3-12.5,30.6-25,45.9-37.5
			c3.8-3,7.5-6.1,11.3-9.1c2.6,5.5,4.7,11.2,7,16.8c2.3,5.7,4.9,11.3,6.8,17.2c-7.2,6.4-14.9,12.4-22.4,18.5
			c-7.7,6.2-15.3,12.5-23,18.7c-15.4,12.6-30.8,25.2-46.2,37.7c-15.4,12.6-30.8,25.1-46.2,37.7c-15.4,12.6-30.9,25.2-46.3,37.8
			c-15.4,12.6-30.9,25.2-46.3,37.8c-15.4,12.5-30.7,25.1-46.1,37.6c-15.5,12.6-30.9,25.3-46.4,37.9c-15.4,12.5-30.7,25.1-46.1,37.6
			c-15.4,12.5-30.7,25.1-46.1,37.6c-15.5,12.6-30.9,25.3-46.4,37.9c-3.5,2.9-7,5.7-10.3,8.8c2.3,3.4,4.6,6.8,6.9,10.2
			c2.1,2.9,3.8,6.2,6.5,8.6c15.4-12.1,30.4-24.7,45.5-37c15.3-12.5,30.6-25,45.9-37.5c15.3-12.5,30.5-24.9,45.8-37.4
			c15.4-12.5,30.7-25.1,46.1-37.6c15.3-12.5,30.5-24.9,45.8-37.4c15.3-12.5,30.6-25,46-37.5c15.3-12.5,30.6-25,46-37.5
			c15.3-12.5,30.5-24.9,45.8-37.4c15.3-12.5,30.6-25,46-37.5c15.3-12.5,30.6-25,45.9-37.5c1.9-1.5,3.7-3,5.6-4.5
			c1.2-1,2.1-2.2,3.8-1.9c4.5,10.9,9,22,13.5,33.2c-14.9,12.2-29.7,24.3-44.6,36.5c-15,12.2-30,24.6-45.1,36.8
			c-15,12.2-29.9,24.5-44.9,36.7s-29.9,24.5-44.9,36.7c-15,12.3-30,24.5-45.1,36.8s-30,24.5-45.1,36.8c-15,12.3-30,24.5-45.1,36.8
			c-15,12.2-29.9,24.5-44.9,36.7c-15,12.2-29.9,24.5-44.9,36.7c-15,12.2-30,24.5-45,36.8c-3.5,2.9-7.2,5.6-10.5,8.7
			c3.3,5.4,12.1,15.7,15.1,17.8c14.8-12.1,29.5-24.1,44.3-36.2c14.8-12.1,29.6-24.1,44.3-36.2c14.8-12.1,29.6-24.2,44.4-36.2
			s29.6-24.2,44.4-36.2c14.7-12,29.5-24.1,44.2-36.1c14.8-12.1,29.6-24.2,44.4-36.2c14.7-12,29.5-24.1,44.2-36.1
			c14.8-12.1,29.6-24.2,44.4-36.2c14.8-12.1,29.6-24.2,44.3-36.2c14.7-12,29.4-24,44.2-36c3.6-2.9,7.2-5.8,10.7-8.7
			c2.1,3.3,12.9,29.6,13.8,33.8c-0.5,0.8-1.3,1.3-2,1.9c-1,0.8-2,1.6-2.9,2.4c-1.8,1.4-3.5,2.9-5.3,4.3c-3.6,3-7.2,5.9-10.8,8.9
			c-7.2,5.9-14.5,11.8-21.7,17.7c-14.5,11.8-28.9,23.6-43.4,35.4c-14.5,11.8-29,23.7-43.5,35.5c-14.5,11.8-28.9,23.6-43.4,35.4
			c-14.5,11.8-28.9,23.6-43.4,35.4s-28.9,23.6-43.4,35.4c-14.5,11.8-29,23.7-43.5,35.5c-14.5,11.8-28.9,23.6-43.4,35.4
			c-14.5,11.8-28.9,23.6-43.4,35.4s-28.9,23.6-43.4,35.4c-1.8,1.4-3.5,2.9-5.3,4.3c-1.7,1.4-3.5,2.7-5.1,4.3
			c-0.3,0.3-0.3,0.5-0.3,0.9c4.6,5.8,13.2,14.2,16.3,15.9c1.7-0.7,3.2-2.3,4.6-3.4c1.8-1.5,3.6-3,5.4-4.4c3.5-2.9,7-5.7,10.5-8.6
			c7.1-5.8,14.2-11.6,21.4-17.4c14.3-11.7,28.6-23.4,42.9-35c14.2-11.6,28.5-23.3,42.7-34.9c14.3-11.7,28.6-23.4,42.9-35
			c14.2-11.6,28.5-23.3,42.7-34.9c14.2-11.6,28.5-23.3,42.7-34.9s28.5-23.3,42.7-34.9s28.5-23.3,42.7-34.9
			c14.2-11.6,28.5-23.3,42.7-34.9c14.3-11.7,28.6-23.4,42.9-35c1.7-1.4,3.4-2.8,5.1-4.2c0.8-0.6,1.5-1.3,2.3-1.9
			c0.6-0.5,1.4-1.3,2.2-1.4c0.1,0,0.3,0,0.8,0c4.4,11,8.9,22,13.4,33.2c-6.4,5.9-13.3,11.2-20,16.6c-6.9,5.7-13.9,11.3-20.8,17
			c-13.8,11.3-27.6,22.6-41.5,33.9c-13.9,11.4-27.9,22.7-41.8,34.1c-13.8,11.3-27.6,22.6-41.5,33.9c-13.9,11.4-27.9,22.7-41.8,34.1
			c-13.8,11.3-27.7,22.6-41.5,33.9c-13.9,11.4-27.9,22.8-41.8,34.1c-13.8,11.3-27.7,22.6-41.5,33.9c-13.9,11.4-27.9,22.7-41.8,34.1
			c-13.8,11.3-27.6,22.6-41.4,33.8c-3.2,2.6-6.4,5.2-9.4,8.1c6,5.2,11.8,10.2,18,15c13.5-10.9,27-21.9,40.4-32.9
			c13.6-11.1,27.3-22.2,40.9-33.4c13.5-11.1,27.1-22.1,40.7-33.2c13.6-11.1,27.2-22.3,40.9-33.4c13.6-11.1,27.3-22.2,40.9-33.4
			c13.6-11.1,27.1-22.2,40.7-33.2c13.6-11.1,27.2-22.3,40.9-33.4c13.6-11.1,27.2-22.2,40.8-33.3c13.6-11.1,27.2-22.1,40.7-33.2
			c13.4-11,27-21.8,40.3-32.9c2.9-2.4,5.8-5,9.1-6.9c4.8,11.3,9.1,22.4,13.7,33.7c-6.3,5.5-12.8,10.6-19.3,15.9
			c-6.6,5.4-13.2,10.7-19.8,16.1c-13.1,10.7-26.3,21.4-39.4,32.2c-13.1,10.7-26.2,21.5-39.4,32.2c-13,10.6-26,21.2-39,31.8
			c-13,10.7-26.1,21.3-39.1,32c-13.1,10.7-26.2,21.4-39.3,32c-13.2,10.7-26.3,21.5-39.5,32.2c-13.1,10.7-26.1,21.4-39.2,32
			c-13.1,10.6-26.1,21.3-39.2,32c-12.9,10.6-25.8,21.2-38.8,31.6c-3,2.4-6,4.9-8.8,7.6c3.2,2.7,6.6,5,10.1,7.3
			c3.2,2.1,6.1,4.8,9.7,6.1c1.6-0.7,2.9-2,4.2-3.1c1.6-1.3,3.2-2.6,4.8-3.9c3.2-2.6,6.4-5.2,9.6-7.8c6.4-5.2,12.7-10.4,19.1-15.6
			c12.8-10.4,25.5-20.8,38.3-31.2c12.8-10.5,25.6-20.9,38.4-31.4c12.8-10.4,25.5-20.8,38.3-31.2c12.8-10.4,25.5-20.8,38.3-31.2
			s25.5-20.8,38.3-31.2s25.5-20.8,38.3-31.2c12.8-10.5,25.6-20.9,38.4-31.4c12.7-10.4,25.4-20.7,38.1-31.1
			c12.8-10.5,25.6-20.9,38.4-31.4c1.5-1.2,3-2.4,4.5-3.7c1.2-1,2.2-2.1,3.8-2c4.4,10.9,8.9,22,13.4,33.1c-2.2,2.6-5.1,4.5-7.7,6.6
			c-3,2.5-6.1,5-9.1,7.4c-6.1,5-12.2,9.9-18.2,14.9c-12.2,10-24.4,19.9-36.6,29.9c-12.2,9.9-24.3,19.9-36.5,29.8
			c-12.2,10-24.4,19.9-36.7,29.9c-12.2,9.9-24.4,19.9-36.6,29.8c-12.2,10-24.5,20-36.7,30c-12.2,9.9-24.4,19.9-36.6,29.8
			c-12.2,10-24.5,20-36.7,30c-12.2,9.9-24.4,19.9-36.6,29.8c-12.2,9.9-24.3,19.9-36.5,29.8c-1.5,1.2-2.9,2.4-4.4,3.6
			c-1,0.8-2.3,1.6-2.8,2.9c3.4,2.8,16.4,10.1,21.4,12c6-4.5,11.7-9.4,17.5-14.1c5.8-4.8,11.7-9.5,17.5-14.3
			c11.7-9.6,23.4-19.1,35.2-28.7s23.4-19.1,35.2-28.7c11.7-9.6,23.4-19.1,35.2-28.7c11.7-9.6,23.4-19.1,35.2-28.7
			c11.7-9.6,23.4-19.1,35.2-28.7c11.7-9.6,23.4-19.1,35.2-28.7c11.7-9.6,23.4-19.1,35.1-28.7c11.7-9.6,23.5-19.2,35.2-28.8
			c11.6-9.5,23.3-19,34.9-28.5c2.7-2.2,5.3-4.3,7.8-6.8c-0.6-3.3-2.6-5.8-3-8.9c8.8-10.5,17.5-21.1,25.5-32.2
			c7.8-10.9,15.1-22.2,21.9-33.8c6.8-11.6,13-23.6,18.6-35.8c5.9-12.9,11.2-26,15.7-39.4c4.7-13.7,8.6-27.6,11.9-41.7
			c0.4-1.7,0.9-3.2,1.5-4.8c13.6,0,27.3,0,40.9,0c13.8,0,27.6,0,41.4,0s27.6,0,41.4,0c13.9,0,27.7,0,41.6,0c13.8,0,27.6,0,41.4,0
			c13.8,0,27.6,0,41.4,0c13.8,0,27.6,0,41.4,0c13.8,0,27.6,0,41.4,0c13.8,0,27.6,0,41.4,0c13.8,0,27.6,0,41.4,0c1.7,0,3.3,0,5,0
			c1.7,0,3.1,0.4,4.7,0.9c0,0.7,0,0.8-0.4,1.4c-0.2,0.3-0.3,0.6-0.4,1c-0.2,0.9-0.1,2-0.2,2.9c-0.1,2.3-0.2,4.6-0.5,6.9
			c-0.7,4.8-1.4,9.6-2.1,14.4c-1.4,9.6-2.9,19.1-4.6,28.6c-3.4,18.7-7.6,37.2-12.4,55.6c-4.6,17.6-9.8,35.1-15.6,52.4
			c-5.8,17.3-12.2,34.4-19.3,51.2c-7,16.8-14.6,33.4-22.8,49.7c-1,2-2,4-3,6c-56.4,109.9-134.1,201.8-233,275.7
			c-13.7,10.3-27.8,20.1-42.2,29.4c-14.3,9.3-28.8,18.1-43.7,26.4c-14.7,8.3-29.8,16.1-45,23.4c-15.3,7.3-30.9,14.2-46.7,20.5
			c-15.8,6.3-31.9,12.2-48.1,17.5c-16.9,5.5-34,10.5-51.3,14.9c-18.2,4.6-36.6,8.6-55.2,11.9c-18.8,3.4-37.7,6-56.7,8.1
			c-19.2,2.1-38.5,3.4-57.7,4c-19.4,0.7-38.8,0.5-58.2,0.5c-19.5,0-39.1,0-58.6,0c-19.5,0-39.1,0-58.6,0c-19.5,0-38.9,0-58.4,0
			c-19.5,0-39.1,0-58.6,0c-19.5,0-39.1,0-58.6,0c-19.5,0-38.9,0-58.4,0c-19.5,0-39.1,0-58.6,0c-19.5,0-39.1,0-58.6,0
			c-19.5,0-38.9,0-58.4,0s-38.9,0-58.4,0c-4.7,0-9.5,0-14.2,0c-4.5,0-9,0.2-13.4-0.3c-1.1-2.8-0.5-6.2-0.5-9.2c0-3.2,0-6.4,0-9.6
			c0-6.4,0-12.8,0-19.2c0-12.9,0-25.9,0-38.8c0-25.7,0-51.5,0-77.2c0-25.9,0-51.7,0-77.6c0-25.8,0-51.6,0-77.4c0-25.8,0-51.6,0-77.4
			c0-25.8,0-51.6,0-77.4c0-25.8,0-51.6,0-77.4c0-25.9,0-51.7,0-77.6c0-25.7,0-51.5,0-77.2c0-25.9,0-51.7,0-77.6
			c0-25.7,0-51.5,0-77.2c0-25.9,0-51.7,0-77.6c0-25.7,0-51.5,0-77.2c0-25.9,0-51.7,0-77.6c0-25.7,0-51.5,0-77.2
			c0-25.9,0-51.7,0-77.6c0-25.7,0-51.5,0-77.2c0-25.9,0-51.7,0-77.6c0-25.7,0-51.5,0-77.2c0-25.9,0-51.7,0-77.6
			c0-12.3-0.1-24.6,0.1-37c14.8,0,29.6,0,44.4,0s29.6,0,44.4,0c14.9,0,29.7,0,44.6,0c14.8,0,29.6,0,44.4,0c14.8,0,29.6,0,44.4,0
			s29.6,0,44.4,0c14.9,0,29.7,0,44.6,0c14.8,0,29.6,0,44.4,0s29.6,0,44.4,0c14.8,0,29.6,0,44.4,0s29.6,0,44.4,0
			c14.9,0,29.7,0,44.6,0c14.8,0,29.6,0,44.4,0s29.6,0,44.4,0c14.8,0,29.6,0,44.4,0c1.8,0,3.8-0.1,5.6,0c0.8,0.1,1.6,0.3,2.4,0.5
			c0.9,0.2,1.9,0.2,2.9,0.3c3.6,0.2,7.2,0.4,10.8,0.6c7.4,0.4,14.7,0.9,22.1,1.4c14.5,1.1,29,2.6,43.5,4.6c14.4,2,28.8,4.4,43,7.1
			c14,2.7,28,5.8,41.8,9.2c13.8,3.5,27.6,7.3,41.2,11.5c6.6,2.1,13.2,4.2,19.8,6.5c139.9,48,257.5,128.6,352.9,241.6
			c9.4,11.1,18.5,22.5,27.2,34.1c8.7,11.5,17,23.2,25,35.2c8,12,15.7,24.2,23,36.6c7.3,12.3,14.3,24.9,20.9,37.6
			c6.7,12.8,12.9,25.8,18.9,39c5.9,13.2,11.5,26.5,16.8,40c5.6,14.4,10.8,29,15.5,43.7c4.9,15.1,9.3,30.4,13.2,45.7
			c4,15.5,7.4,31.2,10.3,46.9c1.5,8,2.9,16,4.2,24.1c1.3,8,2.8,16.1,3.7,24.2c0.2,1.9,0.4,3.9,0.4,5.8c0,0.9,0,1.8,0.2,2.8
			C1433.4,705.1,1433.8,705.9,1434,706.8C1434,709.7,1433.7,705.6,1434,706.8z M1069.3,1456.5c0.1,0.3,0.3,0.7,0.4,1
			c0.1-0.1,0.2-0.2,0.3-0.3c-0.3-0.2-0.5-0.4-0.8-0.6c0.5-1.6-0.7-3.3-1.2-4.7c-0.7-1.8-1.4-3.6-2.2-5.3c-1.5-3.6-2.9-7.2-4.4-10.9
			c-2.9-7.2-5.8-14.4-8.7-21.5c-1.6-3.9-3.1-7.8-4.9-11.6c-14,11.2-27.8,22.6-41.7,34c-4,3.3-8,6.6-12,9.8c-0.7,0.6-2.1,0.9-1.6,2.6
			c7.1-0.3,14.1-1.4,21.1-2.3c7-0.9,14.1-1.9,21.1-2.3c4-0.2,8.1-0.1,12.1,0.6c4.2,0.7,8.3,1.9,12.1,3.9c1.9,0.9,3.6,2.1,5.3,3.3
			c0.8,0.7,1.7,1.4,2.4,2.1C1067.3,1455.2,1068.3,1455.8,1069.3,1456.5C1069.4,1456.9,1068.5,1456,1069.3,1456.5z M619,343
			c0-0.7,0.1-1.3-0.1-1.9c-1.4-4.6-7.4-18.4-9-20.9c-11.9,9.6-23.8,19.3-35.6,29c-11.9,9.7-23.8,19.4-35.7,29.2
			c-12,9.8-23.9,19.5-35.9,29.3c-11.9,9.7-23.8,19.4-35.7,29.2c-12,9.8-23.9,19.5-35.9,29.3c-11.9,9.7-23.8,19.4-35.7,29.2
			c-12,9.8-23.9,19.5-35.9,29.3c-11.9,9.7-23.8,19.4-35.7,29.2c-11.9,9.8-23.9,19.5-35.8,29.3c-11.9,9.8-23.9,19.5-35.9,29.2
			c-2.9,2.3-5.8,4.7-8.7,7c-2.5,2-4.1,4.2-4.8,7.4c-1.4,6-2.9,11.9-4.5,17.8c-0.8,2.9-1.5,5.9-2.3,8.8c-0.6,2.3-0.9,4.5-1.2,6.8
			C360.5,554,489.7,448.5,619,343C618.9,342.3,489.7,448.5,619,343z M618.1,1404.4c5.3-4,10.5-8.4,15.7-12.6c5.3-4.3,10.6-8.7,16-13
			c10.6-8.7,21.3-17.4,31.9-26c10.6-8.7,21.3-17.4,31.9-26c10.6-8.7,21.3-17.3,31.9-26c10.6-8.7,21.2-17.3,31.9-26
			s21.2-17.3,31.9-26s21.2-17.3,31.9-26c10.6-8.7,21.2-17.3,31.9-26c10.6-8.7,21.2-17.3,31.8-26c10.6-8.7,21.2-17.3,31.8-26
			c1.8-1.4,4.5-2.9,5.1-5.2c-2.9-7-5.6-14.4-8.8-21.5c-3.6,2.2-334.9,272.6-338.1,275.9C597.6,1396,609,1401.2,618.1,1404.4
			C619.1,1403.7,609,1401.2,618.1,1404.4z M262.3,557.2c0.3,0.1,0.5,0.3,0.8,0.4c111-90.6,222-181.2,332.9-271.7
			c-0.8-4-6.9-19.1-9.1-22.6c-1.4,0.7-2.6,1.8-3.8,2.8c-1.4,1.2-2.8,2.3-4.2,3.5c-2.8,2.3-5.6,4.6-8.4,6.8
			c-5.6,4.6-11.3,9.2-16.9,13.8c-11.3,9.2-22.6,18.5-33.9,27.7c-11.3,9.2-22.5,18.4-33.8,27.6c-11.3,9.2-22.5,18.4-33.8,27.6
			c-11.2,9.2-22.5,18.4-33.7,27.5c-11.3,9.2-22.6,18.4-33.9,27.7c-11.2,9.2-22.5,18.4-33.7,27.5c-11.2,9.2-22.5,18.4-33.7,27.5
			c-11.2,9.2-22.5,18.3-33.7,27.5c-2.3,1.9-4.2,3.9-5.3,6.7c-1.4,3.3-2.7,6.7-4,10.1c-2.7,6.7-5.3,13.3-8,20
			C264.7,550.8,263.3,554,262.3,557.2C262.6,557.4,262.5,556.7,262.3,557.2z M955.8,1174.7c-4.9,3.6-9.5,7.5-14.1,11.3
			c-5,4-9.9,8.1-14.9,12.1c-9.8,8-19.6,16-29.4,24c-19.7,16.1-39.4,32.2-59.2,48.3c-19.6,16-39.2,32-58.9,48
			c-19.7,16.1-39.4,32.2-59.2,48.3c-19.7,16.1-39.4,32.2-59.1,48.3c-0.9,0.7-1.7,1.4-2.6,2c-0.8,0.6-1.2,1.2-1.1,2.2
			c8.5,2.8,17,5.9,25.7,8c18.6-14.7,36.8-29.9,55.1-44.9c18.6-15.2,37.1-30.3,55.7-45.5c18.5-15.1,37-30.2,55.5-45.3
			c18.5-15.1,37-30.2,55.5-45.3c18.5-15.1,37-30.2,55.5-45.3c1.6-1.3,3.6-2.4,4.4-4.4C961.8,1189.5,959.1,1182.1,955.8,1174.7
			C954.4,1175.7,959.1,1182.1,955.8,1174.7z M313.8,439.2c0.2,0.2,0.4,0.4,0.5,0.6c8.8-6.5,17.1-13.7,25.5-20.6
			c8.5-6.9,16.9-13.8,25.4-20.7c17-13.9,34.1-27.8,51.1-41.7c16.9-13.8,33.9-27.7,50.8-41.5c17-13.9,34-27.8,51-41.6
			c17-13.9,34-27.7,51-41.6c1.3-1.1,3.4-2,3.8-3.9c-2-6.5-7.2-18.8-9.2-21.8c-8.9,6.8-17.5,14.1-26.1,21.1
			c-8.8,7.2-17.6,14.4-26.4,21.6c-17.5,14.3-35,28.6-52.6,42.9c-17.5,14.3-35.1,28.6-52.6,42.9c-17.6,14.4-35.3,28.8-52.9,43.2
			c-4.3,3.5-8.7,6.9-12.9,10.5c-4,3.4-5.7,8.4-8,12.9c-5,10.1-10,20.2-14.9,30.3C316.1,434.3,314.9,436.8,313.8,439.2
			C314,439.4,314.3,438.1,313.8,439.2z M978.5,1232c-2.1,1.3-4,2.9-5.9,4.5c-2.1,1.7-4.1,3.4-6.2,5.1c-4.1,3.4-8.3,6.7-12.4,10.1
			c-8.2,6.7-16.3,13.3-24.5,20c-16.4,13.4-32.8,26.8-49.2,40.2c-16.4,13.4-32.8,26.8-49.2,40.2c-16.4,13.4-32.8,26.8-49.2,40.2
			c-16.4,13.4-32.7,26.7-49.1,40.1c-2,1.6-4,3.3-6,4.9c-0.2,0.2-0.3,0.5-0.4,1c0.9,0.4,1.6,0.8,2.7,1c1.2,0.2,2.3,0.5,3.5,0.7
			c2.3,0.5,4.5,0.9,6.8,1.3c4.5,0.9,9.1,1.8,13.6,2.7c1.5,0.3,2.8-0.1,4-1.1c14.8-12.4,29.9-24.5,44.9-36.7
			c15.1-12.3,30.1-24.6,45.2-36.9c15-12.3,30-24.5,45-36.8c15-12.3,30-24.5,45-36.8c15.1-12.3,30.1-24.6,45.2-36.9
			c1.8-1.5,3.5-2.9,5.2-4.5C986.7,1250.4,980.6,1235.3,978.5,1232C978,1232.3,980.6,1235.3,978.5,1232z M803.7,1450.9
			c10.9,0.8,21.1,1.6,31.3,2.3c1,0.1,2.1-0.4,3.1-0.9c1.4-0.7,2.6-2,3.8-3c1.4-1.1,2.8-2.3,4.2-3.4c2.8-2.3,5.7-4.6,8.5-7
			c5.6-4.6,11.3-9.2,16.9-13.8c11.3-9.2,22.6-18.5,33.9-27.7c11.3-9.2,22.6-18.5,33.9-27.7s22.6-18.5,33.9-27.7
			c11.3-9.2,22.6-18.4,33.9-27.7c1.2-1,2.4-2.1,3.6-3.2c-1.5-5.4-7.3-19.5-9.2-22.2C996.9,1292.2,806.9,1447.4,803.7,1450.9
			C814.6,1451.7,806.9,1447.4,803.7,1450.9z M540.8,149.3c-2.9,1.9-5.5,4.3-8.3,6.5c-2.9,2.4-5.9,4.8-8.8,7.2
			c-5.9,4.8-11.8,9.6-17.6,14.4c-11.8,9.6-23.6,19.3-35.4,28.9c-11.7,9.6-23.5,19.1-35.2,28.7c-5.9,4.8-11.7,9.6-17.6,14.4
			c-2.9,2.4-5.9,4.8-8.8,7.2c-2.6,2.1-5.2,4-6.7,7.1c-6.9,13.6-13.8,27.1-20.7,40.6c-0.8,1.7-1.7,3.3-2.5,5
			c-0.3,0.5-0.8,1.1,0.1,1.9c11.2-9,22.3-18.2,33.4-27.2c11.2-9.2,22.5-18.4,33.7-27.5c11.2-9.2,22.5-18.4,33.7-27.5
			c11.3-9.2,22.6-18.4,33.9-27.7c5.6-4.6,11.2-9.2,16.8-13.8c2.8-2.3,5.6-4.5,8.3-6.8c2.7-2.2,5.3-4.5,8.1-6.6
			c1-0.8,2.1-1.6,2.6-2.8C548.3,165.8,542.8,152.4,540.8,149.3C538.7,150.7,542.8,152.4,540.8,149.3z M890.9,1455.6
			c11.9,0.1,23.1,0.1,34.3-0.5c1.9-0.1,3.4-0.9,4.9-2c1.8-1.4,3.5-2.8,5.2-4.3c3.6-2.9,7.2-5.9,10.8-8.8
			c7.1-5.8,14.3-11.7,21.4-17.5c14.3-11.7,28.6-23.4,43-35.1c4-3.3,8-6.6,12-9.8c2-1.6,4-3.3,6-4.9c1.7-1.4,3.8-2.7,5.1-4.5
			c-1.4-5.5-7.3-19.5-9.4-22.3c-44.1,36-88.1,72-132.2,108C891.8,1454.1,891.6,1454.5,890.9,1455.6
			C902.8,1455.6,891.6,1454.5,890.9,1455.6z M517.9,92.2c-12.6,10.2-25.2,20.5-37.8,30.8c-3.2,2.6-6.4,5.2-9.6,7.8
			c-1.6,1.3-3.2,2.6-4.8,3.9c-1.4,1.1-2.9,2.2-4.1,3.5c-1.2,1.3-1.9,2.8-2.6,4.4c-0.8,1.9-1.6,3.8-2.4,5.6
			c-1.6,3.8-3.2,7.5-4.9,11.3c-1.8,4.2-3.7,8.5-5.5,12.7c-0.9,2.1-1.8,4.1-2.7,6.2c-0.5,1.1-0.9,2.1-1.4,3.2
			c-0.4,0.8-0.9,1.5-0.5,2.4c0.1,0,0.3,0,0.4,0c2.9-1.9,5.5-4.2,8.1-6.4c2.8-2.3,5.6-4.5,8.3-6.8c5.6-4.6,11.2-9.2,16.8-13.7
			c11.2-9.1,22.3-18.2,33.5-27.4c3.1-2.5,6.2-5,9.3-7.6c1.6-1.3,3.2-2.6,4.8-3.9c0.8-0.6,1.5-1.3,2.3-1.9c0.7-0.6,1.3-1,1.6-1.9
			C526,110.8,520.4,96.8,517.9,92.2C515.4,94.2,520.4,96.8,517.9,92.2z M486.6,15.4c0.9,6.8,1.7,13.6,1.4,20.4
			c-0.3,8.3-1.4,16.6-2.9,24.8c-0.5,2.6-1,5.1-1.6,7.7c-0.3,1.2-0.5,2.5-0.9,3.7c-0.3,1-0.7,2,0.2,2.8c5.1-3.4,18.6-14.6,20.9-17.3
			C502.7,53,488.9,19.1,486.6,15.4C488.6,30.1,488.9,19.1,486.6,15.4z"/>
	</g>
</g>
</svg>
