<?xml version="1.0" encoding="utf-8"?>
<!-- Generator: Adobe Illustrator 19.1.0, SVG Export Plug-In . SVG Version: 6.00 Build 0)  -->
<svg version="1.1" id="Calque_1" xmlns="http://www.w3.org/2000/svg" xmlns:xlink="http://www.w3.org/1999/xlink" x="0px" y="0px"
	 viewBox="0 0 100 49" enable-background="new 0 0 100 49" xml:space="preserve">
<g>
	<path fill-rule="evenodd" clip-rule="evenodd" fill="#FFFFFF" d="M18.5,18.5l2.5-4.3h7.7l-0.2,0.5c-0.3,0.6,0.1,1.3,0.7,1.3h1.3
		c0.6,0,0.9-0.4,1-0.8l0.5-1.3c0.2-0.6,0-1.2-0.6-1.2h-6.6c-1.6,0-2.2-1.2-1.2-2.9l3.6-6.3C28,2,29.1,1.5,31,1.5h21.8L51,6.1h-3.6
		l-1.5,14.8l7.5-19.4h7l4.3,20.3h-7.6L56.9,18h-3.3l-1.1,3.9H38l3.6-15.8l-8,0c-0.3,0-1.4,0.1-1.6,0.6c-0.2,0.5,0.3,1.2,0.8,1.2h5.7
		c1.6,0,1.9,0.8,1.5,2.4l-2.3,9.5c-0.4,1.8-2.2,2.1-3.6,2.1H20.2C18.1,21.8,17.2,20.8,18.5,18.5L18.5,18.5z M54.7,13.8h1.9l-0.3-3.9
		h-0.5L54.7,13.8L54.7,13.8z"/>
	<path fill-rule="evenodd" clip-rule="evenodd" fill="#FFFFFF" d="M60.9,1.5l4.6,20.3h7.8l-2.9-8.1h0.3l6.1,8.1l8.6,0l-7.3-8.1
		c0,0-0.6-0.7,0.3-0.9c0.9-0.2,1.4-1.2,0.8-2.3l-4-7.3c-0.7-1.3-1.7-1.8-3.1-1.8H60.9L60.9,1.5z M67.8,6.1l0.6,1.7h1.7
		c1.2,0,0.4-1.7-0.3-1.7H67.8L67.8,6.1z"/>
	<polygon fill-rule="evenodd" clip-rule="evenodd" fill="#FFFFFF" points="16.2,22.5 1.6,47.7 12,47.7 21.1,36 21.8,36 18.7,47.7 
		27.8,47.7 43.3,22.5 36.3,22.5 28.7,34.2 31.8,22.5 26.6,22.5 16,34.8 22.5,22.5 16.2,22.5 	"/>
	<path fill-rule="evenodd" clip-rule="evenodd" fill="#FFFFFF" d="M44,22.5h8.6L53,47.7h-8.8l0.4-4.7h-4.5l-2.5,4.7h-9.1L44,22.5
		L44,22.5z M42.9,37.8h2.2l0.4-4.1h-0.4L42.9,37.8L42.9,37.8z"/>
	<path fill-rule="evenodd" clip-rule="evenodd" fill="#FFFFFF" d="M53.2,22.5l0.6,25.2h8.8l-1.2-9.9h0.3l5.1,9.9h9.9L70,38.3
		c-0.3-0.5-1-1.4,0.1-1.6c1.1-0.2,2.3-1.1,1.5-4.1l-2.1-7.6c-0.2-0.7-1.2-2.6-3.2-2.6H53.2L53.2,22.5z M60.2,28.3l0.3,2.5h2.3
		c0.9,0,0.7-2.5-0.6-2.5H60.2L60.2,28.3z"/>
	<path fill-rule="evenodd" clip-rule="evenodd" fill="#FFFFFF" d="M72.4,22.5h11.1c1.3,0,2.6,0.3,3.2,1.4l3.3,6h-8.6L81,29
		c-0.2-0.4-0.6-0.7-1-0.7h-0.9c-0.5,0-0.8,0.3-0.6,0.8l0.4,1c0.2,0.5,0.7,0.7,1.3,0.7h7.3c0.9,0,3.1,0,3.8,1.3l6.6,12
		c1.2,2.1-0.2,3.5-1.8,3.5H78.9c-1.8,0-2.9-1.3-3.3-2.9l-2-6.9h8.3l0.7,1.8c0.2,0.4,0.6,0.9,1,0.9h1c0.6,0,1-0.7,0.8-1.2l-0.7-1.5
		c-0.2-0.6-0.8-1.1-1.5-1.1h-6.8c-2.1,0-3.3-0.5-4.1-3l-2.5-8.8C69.4,22.9,71,22.5,72.4,22.5L72.4,22.5z"/>
</g>
</svg>
