<?xml version="1.0" encoding="utf-8"?>
<!-- Generator: Adobe Illustrator 19.1.0, SVG Export Plug-In . SVG Version: 6.00 Build 0)  -->
<svg version="1.1" id="Capa_1" xmlns="http://www.w3.org/2000/svg" xmlns:xlink="http://www.w3.org/1999/xlink" x="0px" y="0px"
	 viewBox="0 0 426 198" enable-background="new 0 0 426 198" xml:space="preserve">
<g>
	<path fill="#FFFFFF" d="M204,57v40.5c16.5-1,15-21.5,15-21.5C216.5,56,204,57,204,57z"/>
	<polygon fill="#FFFFFF" points="138,129 151,129 144,87.5 	"/>
	<path fill="#FFFFFF" d="M7.6,6.1v186h411V6.1H7.6z M353.5,58.5H333v28h19.5V115h-19v26h20v27.5H309v-131l-23,131h-27.5l-14.5-87
		c0,0-2.5,24-16,35l17.5,52h-24l-17-45.5v45.5H156l-2.5-13H135l-4,13H85v-50l-12,50H60.5l-11-49.5v49l-25,0.5v-136h31l11,57l12.5-57
		h30V155l19.5-122.5H159L178,155V33h40.5c0,0,14,2.5,21,22l-3-22.5H261l11.5,70.5l12-70h69V58.5z M405,169h-42.5V32.5h23v109H405
		V169z"/>
</g>
</svg>
