<?xml version="1.0" encoding="utf-8"?>
<!-- Generator: Adobe Illustrator 19.1.0, SVG Export Plug-In . SVG Version: 6.00 Build 0)  -->
<svg version="1.1" id="Calque_1" xmlns="http://www.w3.org/2000/svg" xmlns:xlink="http://www.w3.org/1999/xlink" x="0px" y="0px"
	 viewBox="-693 867.2 612 267.8" enable-background="new -693 867.2 612 267.8" xml:space="preserve">
<g>
	<g>
		<path fill="#FFFFFF" d="M-539.8,1066.5l3.5,2.6c-3.6,4.8-9,7.5-14.9,7.5c-10.3,0-18.7-8.3-18.7-18.7c0-10.3,8.3-18.6,18.7-18.6
			c5.9,0,11.4,2.8,14.9,7.5l-3.6,2.6c-2.7-3.6-6.9-5.7-11.4-5.7c-7.9,0-14.2,6.3-14.2,14.2c0,7.9,6.3,14.2,14.2,14.2
			C-546.7,1072.1-542.5,1070.1-539.8,1066.5z"/>
		<path fill="#FFFFFF" d="M-495.4,1057.9c0,10.3-8.4,18.6-18.7,18.6s-18.6-8.3-18.6-18.6c0-10.3,8.3-18.7,18.6-18.7
			S-495.4,1047.6-495.4,1057.9z M-499.9,1057.9c0-7.8-6.3-14.2-14.1-14.2c-7.7,0-14.1,6.4-14.1,14.2c0,7.7,6.3,14.2,14.1,14.2
			C-506.3,1072.1-499.9,1065.7-499.9,1057.9z"/>
		<path fill="#FFFFFF" d="M-463.7,1040.3v22.6c0,7.5-6.1,13.6-13.6,13.6s-13.6-6.1-13.6-13.6v-22.6h4.4v22.6c0,5,4.1,9.2,9.1,9.2
			s9.1-4.2,9.1-9.2v-22.6H-463.7z"/>
		<path fill="#FFFFFF" d="M-451.2,1047.8v28.2h-4.5v-35.6h4.9l19,28.2v-28.2h4.5v35.6h-4.8L-451.2,1047.8z"/>
		<path fill="#FFFFFF" d="M-411.5,1044.8h-9.4v-4.4h23.3v4.4h-9.4v31.2h-4.5V1044.8z"/>
		<path fill="#FFFFFF" d="M-393,1040.3h11.5c10.1,0,18.3,8,18.3,17.8s-8.2,17.8-18.3,17.8H-393V1040.3z M-367.6,1058.1
			c0-7.4-6.2-13.5-13.8-13.5h-7v26.9h7C-373.9,1071.6-367.6,1065.5-367.6,1058.1z"/>
		<path fill="#FFFFFF" d="M-322,1057.9c0,10.3-8.4,18.6-18.7,18.6c-10.3,0-18.6-8.3-18.6-18.6c0-10.3,8.3-18.7,18.6-18.7
			C-330.4,1039.3-322,1047.6-322,1057.9z M-326.6,1057.9c0-7.8-6.3-14.2-14.1-14.2c-7.8,0-14.1,6.4-14.1,14.2
			c0,7.7,6.3,14.2,14.1,14.2S-326.6,1065.7-326.6,1057.9z"/>
		<path fill="#FFFFFF" d="M-295.7,1057.6l-10.4,18.3h-4.8l-10-35.6h4.7l8.3,29.8l9.7-17.1h5l9.7,17.1l8.3-29.8h4.7l-10,35.6h-4.8
			L-295.7,1057.6z"/>
		<path fill="#FFFFFF" d="M-260.4,1047.8v28.2h-4.5v-35.6h4.9l19.1,28.2v-28.2h4.5v35.6h-4.9L-260.4,1047.8z"/>
		<path fill="#FFFFFF" d="M-219.8,1076c-3.7-0.8-7.4-2.6-10.6-5.4l3-3.4c2.7,2.3,5.6,3.8,8.5,4.4c2.5,0.5,5,0.3,6.9-0.5
			c1.3-0.6,3.6-2.1,3.6-5.1c0-3.7-4-5.1-7.9-5.8c-0.3-0.1-6-1.2-8.2-2.5c-3-1.8-4.6-4.5-4.6-7.8c0-1.8,0.6-3.6,1.7-5.1
			c1-1.4,2.5-2.5,4.2-3.4c2.5-1.2,5.5-1.6,8.4-1c3.2,0.5,6.5,2.1,9.5,4.5l-2.9,3.5c-5.1-4.3-10.2-4.3-13.1-3c-2.1,1-3.2,2.7-3.2,4.5
			c0,3.4,2.9,4.7,7.5,5.7c1.9,0.4,5.8,1.1,8.2,2.4c3.2,1.8,5,4.6,5,8.1c0,2.1-0.5,3.9-1.7,5.6c-1,1.5-2.7,2.7-4.4,3.6
			c-1.9,1-3.8,1.2-6.1,1.2C-217.4,1076.3-218.6,1076.2-219.8,1076z"/>
	</g>
	<g>
		<path fill="#FFFFFF" d="M-537.9,979c1.7,0,3-0.6,3.9-3.6l9.7-33c0.6-2.3-0.3-3.6-2.5-3.6h-27.4l8.4-13.2h29.8
			c6.9,0,9.5,4.7,7.7,10.9l-13.2,44.4c-1.2,3.9-3.5,10.2-12.6,10.1l-12.7-0.1l-8.5,28.5h-15.3l23.1-78.4h15.3l-11.1,38H-537.9z"/>
		<path fill="#FFFFFF" d="M-481.9,953.1c4.3,0,6.5,3.6,5.4,7.6l-15.2,51.7c-1.6,5.5-6.1,7-10.7,7h-16.3c-4.7,0-8.2-3.4-6.6-9
			l15-50.8c1-3.8,4.1-6.5,8.6-6.5H-481.9z M-498.3,965.4l-12.2,41.3c-0.3,1,0.2,1.6,1.3,1.6h3.6c1.1,0,1.9-0.6,2.2-1.6l12.1-41.2
			c0.3-1-0.1-1.7-1.4-1.7h-3.5C-497.6,963.8-498,964.5-498.3,965.4z"/>
		<path fill="#FFFFFF" d="M-480.5,1036h-13.8l24.4-82.9h24.3c6,0,7.7,4.2,6.4,8.5l-9.1,31.1c-2.6,9.1-15.8,8-21.6,7.1L-480.5,1036z
			 M-461.9,989.8c1.5,0,2.1-0.4,2.7-2.6l6.1-20.7c0.5-1.6-0.1-2.7-2.1-2.7h-4l-7.7,26H-461.9z"/>
		<path fill="#FFFFFF" d="M-425,1019.4h-15.3l23.1-78.4h15.3L-425,1019.4z M-372.1,942c0.6-2.3-0.4-3.2-2.6-3.2h-49.2l8.4-13.2h52.3
			c6.9,0,9.8,4.7,8,10.9l-24.4,83h-15.3L-372.1,942z M-402.3,1019.4h-15.3l23.1-78.4h15.3L-402.3,1019.4z"/>
		<path fill="#FFFFFF" d="M-328.9,953.1c4.3,0,6.5,3.6,5.4,7.6l-15.2,51.7c-1.6,5.5-6.1,7-10.7,7h-16.3c-4.7,0-8.2-3.4-6.6-9
			l15-50.8c1-3.8,4.1-6.5,8.6-6.5H-328.9z M-345.3,965.4l-12.2,41.3c-0.3,1,0.2,1.6,1.3,1.6h3.6c1.1,0,1.9-0.6,2.2-1.6l12.1-41.2
			c0.3-1-0.1-1.7-1.4-1.7h-3.5C-344.6,963.8-345.1,964.5-345.3,965.4z"/>
		<path fill="#FFFFFF" d="M-318.6,953.1h13.8l-5.3,31.2l12.6-31.2h14.1l-29.1,66.3h-14.9L-318.6,953.1z"/>
		<path fill="#FFFFFF" d="M-290.4,1036h-14.1l24.4-82.9h14.1L-290.4,1036z"/>
		<path fill="#FFFFFF" d="M-261.4,953.1h26.1l-3.6,11.9h-12.2l-4.3,14.6h11.9l-3.5,11.8h-11.9l-4.6,15.4h12.7l-4.6,12.6h-25.6
			L-261.4,953.1z"/>
		<path fill="#FFFFFF" d="M-219,965.1c-1,0-2,0.5-2.5,1.9l-3.9,13.5h7.4c4.9,0,8,2.7,6.1,9.2l-7.6,25.7c-0.7,2.6-3.7,4-6.6,4h-22.5
			l3.7-12.6h11.5c2.6,0,2.9-0.6,3.5-2.3l3.2-11.2c0.2-0.5,0.2-0.9-0.6-0.9h-7.3c-5.7,0-7.1-3.2-5.7-8l7.6-25.7
			c1.5-4.7,4.8-5.6,8.1-5.6h21.2l-3.6,11.9H-219z"/>
	</g>
</g>
</svg>
