<?xml version="1.0" encoding="utf-8"?>
<!-- Generator: Adobe Illustrator 19.1.0, SVG Export Plug-In . SVG Version: 6.00 Build 0)  -->
<svg version="1.1" id="Calque_1" xmlns="http://www.w3.org/2000/svg" xmlns:xlink="http://www.w3.org/1999/xlink" x="0px" y="0px"
	 viewBox="0 0 100 100" enable-background="new 0 0 100 100" xml:space="preserve">
<g>
	<polygon fill="#FFFFFF" points="55,68 55,34 41,34 41,82 43.3,82 56,82 59,82 59,68 	"/>
	<circle fill="#FFFFFF" cx="48.7" cy="25.2" r="7"/>
</g>
<g>
	<path fill="#FFFFFF" d="M50,6.4c24.2,0,44,19.7,44,44s-19.7,44-44,44s-44-19.7-44-44S25.8,6.4,50,6.4 M50,0.4
		c-27.6,0-50,22.4-50,50s22.4,50,50,50s50-22.4,50-50S77.6,0.4,50,0.4L50,0.4z"/>
</g>
</svg>
