<?xml version="1.0" encoding="utf-8"?>
<!-- Generator: Adobe Illustrator 19.1.0, SVG Export Plug-In . SVG Version: 6.00 Build 0)  -->
<svg version="1.1" xmlns="http://www.w3.org/2000/svg" xmlns:xlink="http://www.w3.org/1999/xlink" x="0px" y="0px"
	 viewBox="-693 867.2 612 267.8" enable-background="new -693 867.2 612 267.8" xml:space="preserve">
<g id="Calque_2_1_">
	<g opacity="0.3">
		<path fill="#FFFFFF" d="M-482.2,1058.4c1.1-5.6,2.1-10.8,3.2-16c0.1-0.6,1.1-1.3,1.8-1.6c0.7-0.3,1.6-0.1,2.4-0.1
			c61.5,0,123,0,184.5,0c4.5,0,9.2-0.7,11.6,5.1c1.4-1.5,2.2-2.8,3.4-3.7c0.8-0.7,1.9-1.3,2.9-1.4c4.7-0.3,4.7-0.2,6.3,4.2
			c1.6,4.4,3.1,8.8,4.7,13.4C-335.2,1058.4-408.5,1058.4-482.2,1058.4z"/>
		<path fill="#FFFFFF" d="M-531.3,1077.9c3.9-5.4,7.4-10.3,11.1-15.2c0.5-0.7,2-1,3-1c15.4,0,30.8,0,46.2,0
			c46.8,0,93.6,0.1,140.5,0.1c22.6,0,45.1,0.1,67.7,0c2,0,3.3,0.6,4.5,2.1c3.8,4.5,7.8,8.9,12.2,13.7c-1.3,0.1-2.1,0.2-2.9,0.2
			c-37.6,0-75.2,0-112.8,0c-1.3,0-2.8-0.5-3.8-1.3c-13.3-9.7-28.6-11.7-45.5,1.4c-1,0.6-55,0-56.1,0c-20.7,0-41.4,0-62.1,0
			C-529.8,1078.1-530.3,1078-531.3,1077.9z"/>
		<path fill="#FFFFFF" d="M-478.2,1038.1c0-5.3,0-10.4,0-15.6c11.8,0,24.1,0,36.8,0c-1.3,3.1-2.5,6-3.9,9.4c2.5,0,4.6,0.1,6.6-0.1
			c0.6-0.1,1.4-0.9,1.7-1.6c0.9-2,1.8-4,2.5-6.1c0.5-1.4,1.3-1.8,2.7-1.8c32.3,0,64.6,0,96.9,0.1c1.3,0,2.6,0.8,3.3,1.1
			c1.8-0.4,3.2-1,4.6-1.1c2.8-0.2,5.7-0.1,8.5,0c0.7,0,1.8,0.7,2.1,1.3c2.1,4.7,4.1,9.5,6.1,14.4
			C-365.9,1038.1-421.9,1038.1-478.2,1038.1z"/>
		<path fill="#FFFFFF" d="M-385.1,973.2c1.5,2.4,2.7,4.3,4.1,6.5c0.7-1.7,1-3.4,2-4.1c0.9-0.7,2.7-0.3,4.3-0.5c0-2.1,0-4.1,0-6.2
			c9.4,0,18.6,0,28.1,0c0,2,0,4,0,6.3c1.8,0,3.4,0,5.1,0c0,7,0,13.8,0,20.8c-1.1,0-2.2,0-3.2,0c-21.9,0-43.7,0-65.6,0
			c-5.4,0-5.4,0-6.5-5.6c0.8-0.1,1.5-0.2,2.3-0.3c-0.9-8,4.7-13.7,7.2-20.5c0.6-1.7,4.2-1.4,5,0.3c2.2,4.9,4.4,9.9,6.3,14.9
			c0.5,1.5-0.1,3.4-0.2,5.1c2.4,0.8,3.9,0.1,5-2.5C-389.6,982.7-387.4,978.3-385.1,973.2z"/>
		<path fill="#FFFFFF" d="M-342,998.6c2.3,7.2,4.6,14.1,6.8,21.1c-25.9,0-52.2,0-78.5,0c0.4-3.5,1-7,1.1-10.5c0-3.5-0.5-7-0.8-10.6
			C-389.5,998.6-365.5,998.6-342,998.6z"/>
		<path fill="#FFFFFF" d="M-527,1114.1c1.2-4.2,2.3-8,3.4-11.8c33.4,0,70.3,0.1,103.7,0.1c0,8.2,0,5.9,0,14.3
			c-0.8,0.1-5.4,0.1-6.3,0.1c-31.3,0-62.6,0.1-93.9-0.1C-522.3,1116.6-524.5,1115-527,1114.1z"/>
		<path fill="#FFFFFF" d="M-523.7,1096.2c0-4.7,0-9.3,0-14c17.1,0,100-0.3,110.5-0.3c0,0-5.1,11.8-5.8,14.3
			C-452.3,1096.2-490.1,1096.2-523.7,1096.2z"/>
		<path fill="#FFFFFF" d="M-573.2,1116.6c-0.8-0.4-3.6,0-3.6,0c0-51.6,19.4-90.9,39.9-120.3c28-34.6,63.5-57.4,107.3-66.8
			c15.1-3.2,30.5-4.3,45.9-3.7c0.7,0,1.4,0.1,2.1,0.2c-0.3,2.1-1.2,2.9-3.3,2.8c-33-0.8-64.1,6.3-92.9,22.5
			C-565.3,1005-569.8,1082.2-573.2,1116.6z"/>
		<path fill="#FFFFFF" d="M-337.6,932c29.9,5.9,53.1,17.4,76.3,36.7c26.9,22.3,45.6,50.3,56.1,83.7c6.4,20.5,8.7,41.5,7.7,62.9
			c-0.1,2-0.9,2.5-2.9,1.7c1.6-43.4-10.1-82.9-36.8-117.4c-26.6-34.5-58.2-55.2-100.8-64.7C-337.9,934.1-337.8,933.2-337.6,932z"/>
		<path fill="#FFFFFF" d="M-374.4,936c9.3,0,18.2,0,27.8,0c0,1.9,0.1,2.8,0,4.6c-0.2,2.5,0.4,4.4,2.3,6.1c0.6,0.5,1.1,2.2,0.7,2.8
			c-2.7,4.6-3.5,9.5-3,14.8c0,0.4,0,0.9-0.1,1.3c0,0.2-0.1,0.3-0.2,0.7c-9.1,0-18.4,0-27.9,0c0-1.1-0.1-2.1,0-3
			c0.4-4.7-0.2-9.1-2.5-13.3c-0.4-0.7-0.4-2.2,0-2.5c3.1-2.3,3-5.6,2.8-8.9C-374.5,937.4-374.4,937.3-374.4,936z"/>
		<path fill="#FFFFFF" d="M-360,896.6c3.9,8,7.8,16.1,11.7,24.1c1.6,3.3,3.2,6.7,4.9,10c1,2,0.4,2.8-1.8,2.8c-10.2,0-20.3,0-30.5,0
			c-1.8,0-2.8-0.6-1.8-2.6c5.6-11.3,11.3-22.6,17-33.9C-360.5,896.8-360.3,896.8-360,896.6z"/>
		<path fill="#FFFFFF" d="M-446.5,1019.7c-10.7,0-21.1,0-31.9,0c1.3-2.3,2.5-4.2,3.6-6.2c2.7-4.5,5.4-8.9,8-13.4
			c0.8-1.4,1.8-1.3,3.4-1.5c4.3-0.6,6.9,0.4,8.6,4.7c1.9,4.8,4.7,9.3,7.1,13.9C-447.2,1018-446.9,1018.8-446.5,1019.7z"/>
		<path fill="#FFFFFF" d="M-316.4,1019.7c-4.5,0-8.7,0-13.3,0c0-1.6,0.1-3.2,0-4.7c-0.1-1-0.3-2.2-0.9-2.8c-1.6-1.5-1.8-3-0.8-4.9
			c0.4-0.8,0.6-1.6,0.9-2.5c2.5-6.9,2.9-7.1,10.2-6.2c0.7,0.1,1.5,0.8,1.9,1.5c1.1,2,1.9,4.2,3.1,6.2c1.3,2.3,2.1,4.4-0.4,6.5
			c-0.5,0.4-0.5,1.4-0.5,2.2C-316.4,1016.4-316.4,1018-316.4,1019.7z"/>
		<path fill="#FFFFFF" d="M-306.1,1038.2c1.7-5.2,3.4-10.1,5.1-14.9c0.2-0.5,1.3-0.8,1.9-0.8c2.8-0.1,5.7-0.1,8.5,0
			c0.7,0,1.7,0.4,1.9,0.9c1.8,4.9,3.4,9.8,5.1,14.9C-291.1,1038.2-298.4,1038.2-306.1,1038.2z"/>
		<path fill="#FFFFFF" d="M-493.8,1057.9c-7.8,0-15.2,0-22.9,0c0.2-0.7,0.4-1.3,0.7-1.9c2.4-4.4,4.9-8.8,7.2-13.3
			c1.4-2.7,3.7-1.2,5.6-1.6c1.5-0.3,2.2,0.6,2.7,1.9C-498.4,1047.9-496.1,1052.8-493.8,1057.9z"/>
		<path fill="#FFFFFF" d="M-426.3,1001.5c1.9,6,3.8,12,5.7,18.3c-4.2,0-8.1,0-12.4,0c2.1-6.3,4.1-12.3,6.1-18.3
			C-426.6,1001.5-426.5,1001.5-426.3,1001.5z"/>
		<path fill="#FFFFFF" d="M-293.9,1006.6c1.4,4.3,2.8,8.6,4.3,13.1c-3.5,0-6.6,0-10.1,0c1.8-4.5,3.5-8.7,5.2-13
			C-294.3,1006.6-294.1,1006.6-293.9,1006.6z"/>
		<path fill="#FFFFFF" d="M-472.5,980.5c3.7-1,7.4-2,11.3-3c0,2,0,3.7,0,5.7c-3.8-0.7-7.6-1.4-11.3-2.1
			C-472.4,980.8-472.4,980.6-472.5,980.5z"/>
		<path fill="#FFFFFF" d="M-416.6,952.3c3.6-1,7.2-1.9,11.1-3c0,2,0,3.6,0,5.6c-3.8-0.7-7.5-1.4-11.2-2.1
			C-416.7,952.7-416.7,952.5-416.6,952.3z"/>
		<path fill="#FFFFFF" d="M-371.3,887.8c3.5-0.9,7.1-1.9,10.9-2.9c0,1.8,0,3.4,0,5.6c-3.6-0.7-7.3-1.3-10.9-2
			C-371.3,888.2-371.3,888-371.3,887.8z"/>
		<path fill="#FFFFFF" d="M-294.3,993.1c0,2.1,0,3.7,0,5.7c-3.9-0.7-7.5-1.4-11.2-2.1c0-0.2,0-0.4,0-0.6
			C-301.9,995.1-298.3,994.1-294.3,993.1z"/>
		<path fill="#FFFFFF" d="M-324,974.6c0,2,0,3.6,0,5.7c-3.8-0.7-7.4-1.3-11.1-2c0-0.2-0.1-0.4-0.1-0.6
			C-331.5,976.6-327.9,975.7-324,974.6z"/>
		<path fill="#FFFFFF" d="M-327.3,995.8c1.1-3.2,2.1-5.9,3.4-9.5c1.4,3.6,2.6,6.4,3.9,9.5C-322.5,995.8-324.7,995.8-327.3,995.8z"/>
		<path fill="#FFFFFF" d="M-516.1,1023c3.6-1,7.2-1.9,11.1-3c0,1.9,0,3.6,0,5.6c-3.8-0.7-7.4-1.4-11.1-2.1
			C-516.1,1023.4-516.1,1023.2-516.1,1023z"/>
		<path fill="#FFFFFF" d="M-461.1,989.3c1.1,2.3,2,4.2,3,6.3c-2.2,0-4,0-6.3,0C-463.3,993.5-462.4,991.7-461.1,989.3z"/>
		<path fill="#FFFFFF" d="M-273.5,1038.1c0.8-2.2,1.6-4.1,2.6-6.8c1,2.5,1.7,4.5,2.6,6.8C-270.1,1038.1-271.6,1038.1-273.5,1038.1z"
			/>
		<path fill="#FFFFFF" d="M-507,1037.3c0.9-1.7,1.6-3,2.6-4.8c0.7,2,1.2,3.3,1.8,4.8C-504.1,1037.3-505.3,1037.3-507,1037.3z"/>
		<path fill="#FFFFFF" d="M-305.2,1082c0.1,0,0.1,0,0.2,0.1l-20.2,0c0,0,0.1,0,0.1,0c-12.2,0-23.7-0.1-35.9-0.1
			c2.1,3.7,4.3,14.5,5.5,14.2h64.8c11.2,0,22.3,0,33.3,0c0-4.8,0-9.3,0-14.1C-273.2,1082-288.8,1082-305.2,1082z"/>
		<path fill="#FFFFFF" d="M-254.7,1104.7c-0.4-1.6-1-2.1-2.7-2.1c-11.8,0.1-23.5,0.1-35.3,0c-0.4,0-0.8,0-1.1,0.1l-53.5-0.1l0,0.1
			c-0.9,0-2-0.9-6.8-0.5v14l45.7,0.8c-0.1,0-0.1,0.1-0.2,0.1c19.2,0,37.9,0,57.1,0C-252.6,1112.7-253.7,1108.7-254.7,1104.7z"/>
	</g>
</g>
<g id="Calque_1">
	<g>
		<g opacity="0.6">
			<path fill="#FFFFFF" d="M-468,965.2v42.8c0,5.3-1.3,9.5-3.5,12.6c-0.1,0.2-0.3,0.3-0.4,0.5c-1.7,1.3-3.8,2.1-6.2,2.2
				c-0.2,0-0.5,0-0.7,0c-3.2,0-5.8-1.2-7.7-3.8c-2.2-2.9-3.5-7-3.5-12.4v-43.6l-19,0.2l-2,2v44.5c0,11.1,3,19.7,8.9,25.5
				c5.4,5.2,12.1,7.9,20,7.9c0.8,0,1.5,0,2.3-0.1c8.6-0.5,15.7-3.9,21.2-9.9c0.8-0.7,1.6-1.5,2.4-2.4c5.5-6.1,8.2-14.7,8.2-25.4v-43
				l-18,0.2L-468,965.2z"/>
			<path fill="#FFFFFF" d="M-292,993.8v17.2c-2,0.7-3.7,1.1-5.9,1.3c-0.2,0-0.4,0-0.6,0c-3.1,0-5.7-1.4-8-4.2
				c-2.6-3.1-3.9-7.5-3.9-13c0-5.5,1.4-10.1,4.1-13.4c0.1-0.1,0.2-0.2,0.3-0.3c2.1-1.7,4.5-2.6,7.2-2.7l0.3,0c1.8,0,3.5,0.4,5,1.1
				c1.7,0.8,3.5,2.3,5.6,4.5l2.6,2.8l7.9-14.9l1.2-2.2l-1-1.1c-5.6-6.1-12.3-9.2-19.9-9.2l-0.3,0c-7.3,0.1-13.8,3.1-19.2,8.9
				c-1.2,1.1-2.3,2.2-3.4,3.5c-5.6,6.8-8.5,15.4-8.5,25.4c0,10,2.8,18.3,8.4,24.6c5.2,5.9,11.6,8.9,18.9,8.9c0.6,0,1.1,0,1.8-0.1
				c7.9-0.5,14.4-3.5,19.4-9c1.7-1.6,3.3-3.4,4.8-5.4l0.3-0.5v-24.7l-15,0.6L-292,993.8z"/>
			<path fill="#FFFFFF" d="M-524.8,998.6c-5.3-4.8-12.9-8.3-22.5-10.4c-11.5-2.6-15.9-4.4-17.6-5.5c-2.1-1.4-3.1-3.1-3.1-5.4
				c0-1.7,0.4-3.1,1.2-4.3c1.7-1.2,4.1-1.8,6.9-1.9l0.5,0c8.5,0,16.8,3.1,24.8,9.2l2.2,1.8l13.1-20.1l1.4-2.2l-1.3-1.1
				c-4.9-4.3-10.8-7.7-17.5-10.1c-6.7-2.4-13.6-3.6-20.5-3.6c-10.7,0-19.9,2.9-27.2,8.5c-1.5,1.1-2.8,2.4-4,3.7
				c-6.3,5.7-9.4,13.5-9.4,23.1c0,10.6,3.1,18.4,9.2,23.3c5.8,4.6,14.9,8.2,26.9,10.6c8.8,1.9,12.4,3.5,13.9,4.6
				c1.9,1.3,2.8,3.1,2.8,5.5c0,1.7-0.4,3.1-1.3,4.4c-1.9,1.4-4.6,2.2-7.8,2.4c-0.5,0-0.9,0-1.4,0c-8.3,0-17.6-4.3-27.7-12.7
				l-1.6-1.3l-18.4,23l1.4,1.2c12.4,10.7,26.2,16.2,41,16.2c1.5,0,2.9-0.1,4.4-0.2c11.2-0.8,20.4-4.4,27.3-10.8
				c0.6-0.6,1.2-1.2,1.8-1.8c0.1-0.1,0.1-0.1,0.2-0.2c6.8-6.4,10.3-14.4,10.3-24C-516.6,1010.8-519.3,1003.5-524.8,998.6z"/>
			<path fill="#FFFFFF" d="M-392.1,1008.9c4.6-4.4,7-11.2,7-20.1c0-8.9-2.3-15.6-6.8-19.9c-4.4-4.2-11.3-6.4-20.7-6.4
				c-0.3,0-0.5,0-0.8,0l-23.7,0.3l-2,2v76l18-1.1l2-2v-19.2l4-0.2c9.3-0.5,16.2-2.9,20.8-7.4c0.4-0.4,0.7-0.8,1.1-1.2
				C-392.8,1009.5-392.4,1009.2-392.1,1008.9z M-412.1,998.9l-6.9,0.3v-17.3l3.6-0.1c0.2,0,0.3,0,0.5,0c3.6,0,6.2,0.6,7.8,1.9
				c1.6,1.2,2.4,3.5,2.4,6.7c0,3-0.5,5.4-1.5,7.2C-407.5,998.3-409.5,998.8-412.1,998.9z"/>
			<path fill="#FFFFFF" d="M-364.6,961.9l-2,2l-26.9,73.6l18.1-1.1l2-2l5.1-14.2l19.3-1l5.4,15l17-1.1l2-2l-25.2-69.3L-364.6,961.9z
				 M-355.7,1000.6l-5.6,0.2l2.8-7.8L-355.7,1000.6z"/>
			<path fill="#FFFFFF" d="M-244.5,959l-0.3,0c-6.9,0.1-12.8,2.9-17.8,8.3c-1.2,1.1-2.4,2.4-3.5,3.8c-5.2,6.5-7.8,14.6-7.8,24.1
				c0,9.5,2.6,17.5,7.8,23.6c4.9,5.8,10.8,8.7,17.8,8.7c0.5,0,1.1,0,1.6-0.1c6.5-0.4,12-3.2,16.6-8.2c1.4-1.3,2.8-2.8,4-4.5
				c4.8-6.4,7.2-14.3,7.2-23.4c0-9.1-2.5-16.8-7.3-22.9C-231,962.2-237.2,959-244.5,959z M-244.9,1009.7c-0.2,0-0.4,0-0.5,0
				c-3,0-5.5-1.4-7.7-4.4c-2.5-3.3-3.7-7.5-3.7-12.5c0-5,1.3-9.4,3.7-12.9c0.3-0.4,0.5-0.8,0.8-1.1c1.7-1.3,3.5-2,5.5-2l0.2,0
				c3.1,0,5.7,1.5,7.9,4.6c2.4,3.3,3.6,7.5,3.6,12.4c0,4.9-1.2,9.2-3.6,12.7c-0.3,0.4-0.6,0.8-0.9,1.2
				C-241.1,1008.9-242.9,1009.6-244.9,1009.7z"/>
			<path fill="#FFFFFF" d="M-185,987.4l-2,2v15.7c-1,0.5-2.6,0.9-4.3,0.9c-0.1,0-0.2,0-0.3,0c-2.5,0-4.6-1.2-6.5-3.7
				c-2.1-2.8-3.2-6.8-3.2-11.9c0-5.1,1.1-9.2,3.4-12.3c0.1-0.2,0.3-0.4,0.4-0.6c1.6-1.2,3.3-1.8,5.2-1.9l0.2,0c1.5,0,2.8,0.3,4,0.9
				c1.4,0.7,2.9,2,4.6,4l2.7,3.2l6.7-13.9l0,0l1.3-2.5l-0.8-1c-4.8-5.7-10.5-8.6-17.1-8.6l-0.3,0c-6,0.1-11.2,2.6-15.7,7.5
				c-1.3,1.2-2.6,2.6-3.8,4.2c-4.7,6.3-7.1,14.1-7.1,23.2c0,9.2,2.4,16.8,7.1,22.6c4.4,5.5,9.9,8.3,16.3,8.3c0.5,0,1.1,0,1.5,0
				c6.1-0.4,12.5-3.9,17.1-8.6c1.4-1.4,2.8-3,3.9-4.9l0.5-0.5v-22.9L-185,987.4z"/>
		</g>
		<g>
			<path fill="#FFFFFF" d="M-488,1020.8c2.5,3.2,5.9,4.7,10.1,4.5c4.2-0.2,7.5-2.1,9.9-5.5c2.4-3.4,3.6-8,3.6-13.7v-40.8l14.4-0.2
				v40.9c0,10.3-2.6,18.3-7.7,24.1c-5.2,5.9-11.9,9.1-20.2,9.6c-8.4,0.5-15.3-1.9-20.8-7.3c-5.5-5.4-8.3-13.5-8.3-24.1v-42.5
				l15.3-0.2v41.6C-491.8,1013-490.5,1017.5-488,1020.8z"/>
			<g>
				<path fill="#FFFFFF" d="M-566.6,969.9c-2.2,1.9-3.3,4.3-3.3,7.3c0,3,1.3,5.4,4,7.1c2.7,1.7,8.7,3.6,18.2,5.8
					c9.3,2.1,16.5,5.4,21.6,10c5,4.5,7.5,11.3,7.5,20.2c0,9-3.2,16.5-9.7,22.5c-6.5,6.1-15.2,9.5-26,10.3c-16,1.1-30.6-4-43.9-15.5
					l13.9-17.9c11.1,9.3,21.2,13.6,30.4,13.1c4.1-0.2,7.3-1.3,9.6-3.2c2.3-1.9,3.4-4.4,3.4-7.5c0-3.1-1.2-5.4-3.7-7.1
					c-2.4-1.7-7.3-3.3-14.7-4.9c-11.8-2.4-20.5-5.8-26.1-10.2c-5.6-4.5-8.4-11.7-8.4-21.7c0-10,3.6-17.7,10.7-23.2
					c7-5.4,15.7-8.1,26-8.1c6.7,0,13.3,1.2,19.8,3.5c6.5,2.3,12.1,5.5,16.8,9.7l-10.9,16.6c-8.5-6.5-17.3-9.8-26.5-9.6
					C-561.4,967.1-564.4,968.1-566.6,969.9z"/>
				<path fill="#FFFFFF" d="M-393.4,970.4c4.1,4,6.2,10.1,6.2,18.5c0,8.4-2.1,14.6-6.3,18.6c-4.3,4.1-10.8,6.4-19.7,6.8l-8.1,0.4
					v21.2l-13.9,0.9v-71.8l21.8-0.3C-404.2,964.4-397.5,966.4-393.4,970.4z M-403.1,997.5c1.6-2.1,2.4-5.1,2.4-9.1
					c0-3.9-1-6.7-3.1-8.3c-2.1-1.6-5.4-2.4-9.8-2.3l-7.8,0.2v23.3l9.2-0.4C-407.7,1000.7-404.7,999.6-403.1,997.5z"/>
				<path fill="#FFFFFF" d="M-340.1,1030l-5.4-15l-23.4,1.2l-5.8,16.2l-13.8,0.9l25.3-69.4l12.1-0.2l23.8,65.5L-340.1,1030z
					 M-357.1,983.5l-7.1,19.5l14-0.6L-357.1,983.5z"/>
				<path fill="#FFFFFF" d="M-288,993.7l11.2-0.4v22c-4.9,7.2-11.8,11.1-20.6,11.6c-7.5,0.5-13.9-2.2-19.1-8.1
					c-5.3-6-7.9-13.7-7.9-23.3c0-9.6,2.7-17.6,8-24.1c5.3-6.4,11.7-9.7,19-9.8c7.3-0.1,13.5,2.8,18.8,8.6l-5.8,10.6
					c-2.2-2.4-4.3-4-6.2-4.9c-1.9-0.9-4-1.3-6.2-1.3c-4.3,0.1-8,2-11,5.8c-3,3.8-4.5,8.7-4.5,14.7s1.5,10.8,4.4,14.3
					c2.9,3.5,6.3,5.1,10.3,4.9c3.9-0.2,7.2-1.3,9.8-3.3V993.7z"/>
				<path fill="#FFFFFF" d="M-227.6,1013.6c-4.6,6.2-10.3,9.5-17.2,9.9c-7,0.4-12.9-2.2-17.7-8c-4.9-5.8-7.3-13.3-7.3-22.3
					c0-9.1,2.5-16.7,7.3-22.9c4.8-6.1,10.8-9.2,17.7-9.3c6.9-0.1,12.6,2.8,17.2,8.6c4.6,5.8,6.9,13,6.9,21.7
					C-220.7,1000-223,1007.4-227.6,1013.6z M-231.1,991.8c0-5.3-1.3-9.8-3.9-13.5c-2.6-3.7-5.9-5.5-9.8-5.5c-3.9,0.1-7.2,2.1-9.9,6
					c-2.7,3.9-4.1,8.6-4.1,14.1c0,5.5,1.4,10,4.1,13.7c2.7,3.7,6,5.4,9.9,5.2c3.9-0.2,7.2-2.3,9.8-6.1
					C-232.4,1001.7-231.1,997.1-231.1,991.8z"/>
				<path fill="#FFFFFF" d="M-182.9,989.3l9.4-0.4v20.2c-4.1,6.6-9.9,10.1-17.4,10.6c-6.3,0.4-11.7-2.1-16-7.5
					c-4.4-5.5-6.6-12.6-6.6-21.4c0-8.7,2.3-16.1,6.7-22c4.4-5.9,9.8-8.8,15.9-8.9c6.1-0.1,11.4,2.6,15.8,7.9l-4.8,9.7
					c-1.9-2.2-3.6-3.7-5.2-4.5c-1.6-0.8-3.3-1.2-5.2-1.2c-3.6,0.1-6.7,1.8-9.2,5.2c-2.5,3.4-3.8,7.9-3.8,13.4
					c0,5.5,1.2,9.9,3.6,13.1c2.4,3.2,5.3,4.7,8.6,4.5c3.3-0.2,6-1.2,8.2-3V989.3z"/>
			</g>
		</g>
		<g opacity="0.6">
			<path fill="#FFFFFF" d="M-238.8,1052.2c-0.4-0.4-0.6-0.9-0.6-1.5s0.2-1.1,0.6-1.5s0.9-0.6,1.5-0.6s1.1,0.2,1.5,0.6
				s0.6,0.9,0.6,1.5s-0.2,1.1-0.6,1.5s-0.9,0.6-1.5,0.6S-238.4,1052.6-238.8,1052.2z"/>
			<path fill="#FFFFFF" d="M-224,1049.3c1.8,0,3.3-0.7,4.5-2.2l2.4,2.5c-1.9,2.1-4.1,3.2-6.7,3.2s-4.7-0.8-6.4-2.4
				c-1.7-1.6-2.5-3.7-2.5-6.2c0-2.5,0.9-4.6,2.6-6.2s3.8-2.5,6.3-2.5c2.8,0,5.1,1,6.9,3.1l-2.3,2.6c-1.2-1.5-2.7-2.2-4.4-2.2
				c-1.4,0-2.6,0.5-3.6,1.4s-1.5,2.2-1.5,3.7c0,1.6,0.5,2.8,1.4,3.8C-226.5,1048.8-225.4,1049.3-224,1049.3z"/>
			<path fill="#FFFFFF" d="M-200.4,1050.3c-1.7,1.7-3.8,2.5-6.3,2.5c-2.5,0-4.6-0.8-6.3-2.5c-1.7-1.7-2.5-3.7-2.5-6.2
				s0.8-4.5,2.5-6.2c1.7-1.7,3.8-2.5,6.3-2.5c2.5,0,4.6,0.8,6.3,2.5s2.5,3.7,2.5,6.2S-198.7,1048.6-200.4,1050.3z M-201.7,1044.1
				c0-1.5-0.5-2.8-1.4-3.8c-1-1.1-2.1-1.6-3.5-1.6s-2.6,0.5-3.5,1.6c-1,1.1-1.4,2.3-1.4,3.8c0,1.5,0.5,2.8,1.4,3.8s2.1,1.6,3.5,1.6
				s2.6-0.5,3.5-1.6S-201.7,1045.6-201.7,1044.1z"/>
			<path fill="#FFFFFF" d="M-179.7,1042.1l-4.5,9.2h-2.2l-4.5-9.2v10.6h-3.7v-16.8h5.1l4.3,9.2l4.3-9.2h5v16.8h-3.7V1042.1z"/>
		</g>
	</g>
</g>
</svg>
