<?xml version="1.0" encoding="utf-8"?>
<!-- Generator: Adobe Illustrator 19.1.0, SVG Export Plug-In . SVG Version: 6.00 Build 0)  -->
<svg version="1.1" xmlns="http://www.w3.org/2000/svg" xmlns:xlink="http://www.w3.org/1999/xlink" x="0px" y="0px"
	 viewBox="-693 867.2 612 267.8" enable-background="new -693 867.2 612 267.8" xml:space="preserve">
<g id="Calque_2_1_">
	<g opacity="0.3">
		<path fill="#FFFFFF" d="M-488.4,1001.1c0-19.1,0-38.2,0-57.3c0-1,0.3-1.5,1.2-2c33.1-19.1,66.1-38.1,99.2-57.3
			c0.8-0.5,1.4-0.4,2.2,0c33.1,19.1,66.2,38.2,99.3,57.3c0.8,0.4,1.1,0.9,1.1,1.8c0,38.3,0,76.5,0,114.8c0,0.8-0.2,1.3-1,1.7
			c-33.2,19.1-66.3,38.3-99.5,57.4c-0.7,0.4-1.3,0.4-2,0c-33.1-19.1-66.2-38.3-99.4-57.4c-0.8-0.5-1-0.9-1-1.8
			C-488.4,1039.3-488.4,1020.2-488.4,1001.1z M-292.6,1001.1c0-17.7,0-35.4,0-53.1c0-1-0.2-1.5-1.1-2
			c-30.7-17.7-61.5-35.4-92.2-53.2c-0.9-0.5-1.5-0.5-2.3,0c-30.7,17.7-61.4,35.5-92.1,53.2c-0.8,0.5-1.1,1-1.1,1.9
			c0,35.5,0,71,0,106.4c0,0.9,0.3,1.4,1.1,1.9c30.8,17.7,61.5,35.5,92.3,53.3c0.7,0.4,1.3,0.4,2,0c30.8-17.8,61.5-35.5,92.3-53.3
			c0.9-0.5,1.1-1,1.1-2C-292.6,1036.5-292.6,1018.8-292.6,1001.1z"/>
		<path fill="#FFFFFF" d="M-303.4,1001.2c-0.2,46.4-37.4,83.6-83.6,83.6c-46.2,0-83.6-37.2-83.6-83.6c0-46.3,37.2-83.6,83.6-83.6
			C-340.7,917.6-303.6,954.9-303.4,1001.2z M-422.1,932.9c3.9,10.1,7.9,20.1,11.8,30.1c-0.1,0-0.1,0.1-0.2,0.1
			c-7.3-7.9-14.6-15.8-22-23.8c-4.4,3.2-8.3,6.8-11.9,10.9c7.3,8,14.6,15.8,21.9,23.7c-0.1,0.1-0.1,0.1-0.2,0.2
			c-9.7-4.7-19.4-9.4-29.1-14.2c-2.9,4.6-5.3,9.3-7.2,14.4c9.7,4.8,19.4,9.5,29.1,14.2c0,0.1-0.1,0.2-0.1,0.2
			c-10.8-0.9-21.6-1.8-32.4-2.7c-1.1,5.4-1.6,10.7-1.5,16c10.9,0.9,21.7,1.8,32.5,2.7c0,0.1,0,0.1,0,0.2
			c-10.4,3.1-20.9,6.1-31.3,9.2c0.1,2.9,2.9,12.9,4.4,15.5c10.4-3.1,20.9-6.1,31.3-9.2c0,0.1,0.1,0.1,0.1,0.2
			c-8.7,6.7-17.4,13.3-26.3,20.2c3.3,4.3,6.5,8.6,9.7,12.9c9-6.9,17.6-13.5,26.3-20.1c0.1,0.1,0.1,0.1,0.2,0.2
			c-5.7,9.3-11.4,18.7-17.2,28c4.3,3.4,8.8,6.2,13.7,8.5c5.8-9.5,11.5-18.8,17.3-28.2c0.1,0,0.1,0.1,0.2,0.1c-2,10.8-4,21.6-6,32.4
			c2,1.1,13.4,3.3,15.8,2.9c2-10.7,4-21.4,6-32.1c0.1,0,0.2,0,0.3,0c2,10.7,4,21.4,6,32.2c5.4-0.5,10.7-1.4,15.8-3
			c-2-10.9-4-21.7-6-32.5c0.1,0,0.1,0,0.2-0.1c5.7,9.4,11.5,18.7,17.3,28.1c4.9-2.4,9.4-5.2,13.7-8.5c-5.8-9.4-11.5-18.7-17.2-28
			c0.1-0.1,0.1-0.1,0.2-0.2c8.7,6.6,17.3,13.3,26,19.9c3.7-4,6.9-8.2,9.7-12.9c-8.8-6.7-17.4-13.4-26.1-20c0-0.1,0.1-0.1,0.1-0.2
			c10.5,3.1,21,6.1,31.4,9.2c1.4-2.7,4.5-13.2,4.3-15.5c-10.4-3-20.8-6.1-31.2-9.2c0-0.1,0-0.2,0-0.2c10.8-0.9,21.6-1.8,32.4-2.7
			c0-5.4-0.4-10.7-1.5-16c-10.9,0.9-21.6,1.8-32.4,2.7c0-0.1,0-0.2-0.1-0.3c9.7-4.7,19.4-9.5,29.1-14.2c-2-5.2-4.3-9.9-7.2-14.4
			c-9.8,4.8-19.4,9.5-29.1,14.2c0-0.1-0.1-0.1-0.1-0.2c7.3-7.9,14.6-15.8,21.9-23.7c-3.7-4.1-7.6-7.7-11.9-10.8
			c-7.4,8-14.7,15.9-22,23.8c-0.1,0-0.1-0.1-0.2-0.1c3.9-10,7.8-20,11.8-30.1c-4.9-2.5-9.8-4.4-15-5.8c-3.9,10.1-7.9,20.1-11.8,30.1
			c-0.1,0-0.2,0-0.2,0c0-10.7,0-21.5,0-32.2c-5.4-0.6-10.7-0.6-16.1,0c0,10.8,0,21.5,0,32.2c-0.1,0-0.1,0-0.2,0.1
			c-3.9-10-7.8-20-11.8-30.1C-412.4,928.5-417.3,930.4-422.1,932.9z"/>
	</g>
</g>
<g id="Calque_1">
	<g id="Calque_2">
		<g>
			<g>
				<path fill="#FFFFFF" d="M-524.1,1003.4l0.2,11.4l-10-0.2l0.2-70c3.3-0.5,6.2-0.8,8.8-0.8h1c3.6,0.2,6.7,0.7,9.1,1.8
					c5.8,2.3,8.8,9.8,8.9,22.5c-0.3,8.8-2.8,14.9-7.4,18.2c-3.5,2.2-7,3.4-10.5,3.2L-524.1,1003.4z M-524,952.8l-0.1,26.5
					c2.4-0.2,4.3-0.8,5.4-1.8c1.4-1.3,2.2-4.7,2.4-10.4c-0.1-5.4-0.3-8.8-0.8-10.4C-518.7,954.1-520.9,952.8-524,952.8z"/>
				<path fill="#FFFFFF" d="M-474.4,979.7c0,11.5-0.8,20.3-2.5,26.4c-1.7,6.1-5.7,9.3-12.2,9.5v-0.1c-6.7-0.5-10.8-3.7-12.3-9.6
					c-1.6-6-2.4-14.7-2.4-26.3h0.1c0-11.5,0.8-20.2,2.4-26.2c1.6-6,5.7-9.2,12.3-9.6v-0.1c6.5,0.2,10.5,3.4,12.2,9.4
					C-475.2,959.3-474.3,968.1-474.4,979.7L-474.4,979.7z M-485,961.3c-0.5-4.2-1.8-6.4-3.8-6.6v0.1c-2,0.2-3.4,2.5-3.9,6.7
					c-0.5,4.1-0.8,10.2-0.8,18.2s0.2,14.1,0.8,18.2c0.5,4.2,1.8,6.3,3.8,6.7v0.1c2-0.2,3.3-2.4,3.8-6.6c0.6-4.2,0.8-10.4,0.8-18.3
					C-484.2,971.6-484.5,965.6-485,961.3z"/>
				<path fill="#FFFFFF" d="M-461.2,1003.4l0.2,11.4l-10-0.2l0.2-70c3.3-0.5,6.2-0.8,8.8-0.8h1c3.6,0.2,6.7,0.7,9.1,1.8
					c5.8,2.3,8.8,9.8,8.9,22.5c-0.3,8.8-2.8,14.9-7.4,18.2c-3.5,2.2-7,3.4-10.5,3.2L-461.2,1003.4z M-461,952.8l-0.1,26.5
					c2.4-0.2,4.3-0.8,5.4-1.8c1.4-1.3,2.2-4.7,2.4-10.4c-0.1-5.4-0.3-8.8-0.8-10.4C-455.6,954.1-458,952.8-461,952.8z"/>
				<path fill="#FFFFFF" d="M-399.9,977.6l-1,37.5h-9.9l2.4-71.7l9.4,0.1v0.1h2.6l5.9,35.8l5.5-35.8l9-0.1l2.8-0.2l2.7,71.4
					l-9.4,0.7l-1.4-36.5l-4.5,26.4l-8.5,1L-399.9,977.6z"/>
				<path fill="#FFFFFF" d="M-339.8,979.7c0,11.5-0.8,20.3-2.5,26.4c-1.7,6.1-5.7,9.3-12.2,9.5v-0.1c-6.7-0.5-10.8-3.7-12.3-9.6
					c-1.6-6-2.4-14.7-2.4-26.3h0.1c0-11.5,0.8-20.2,2.4-26.2c1.6-6,5.7-9.2,12.3-9.6v-0.1c6.5,0.2,10.5,3.4,12.2,9.4
					C-340.5,959.3-339.7,968.1-339.8,979.7L-339.8,979.7z M-350.4,961.3c-0.5-4.2-1.8-6.4-3.8-6.6v0.1c-2,0.2-3.4,2.5-3.9,6.7
					c-0.5,4.1-0.8,10.2-0.8,18.2s0.2,14.1,0.8,18.2c0.5,4.2,1.8,6.3,3.8,6.7v0.1c2-0.2,3.3-2.4,3.8-6.6c0.6-4.2,0.8-10.4,0.8-18.3
					C-349.6,971.6-349.9,965.6-350.4,961.3z"/>
				<path fill="#FFFFFF" d="M-319.5,943.5l9.6,1.4l-10.8,70.8l-9.4,0.4l-10.1-71.3l10-0.8l5.6,43.6L-319.5,943.5z"/>
				<path fill="#FFFFFF" d="M-308.5,943.8h9.6l0.9,71.8l-9.6,0.2L-308.5,943.8z"/>
				<path fill="#FFFFFF" d="M-282.4,980.4l-0.2,22.9l12.7,0.2l-0.3,11.5l-22.5-0.2l1-70.8l21.5,0.2l0.3,10.9l-12.3,0.2l-0.2,13.9
					l9.9,0.2l-0.3,11.2H-282.4z"/>
				<path fill="#FFFFFF" d="M-266.2,953.1c1.5-5.9,5.6-9.2,12.3-9.6v-0.1c5.9,0.2,9.7,3.5,11.4,9.4c1.3,4.5,2.1,9.5,2.4,15.2
					l-9.9,0.3c-0.2-2.2-0.3-4.7-0.7-7.3c-0.5-4.2-1.4-6.4-2.9-6.6v0.1c-2,0.2-3.3,2.5-3.8,6.7c-0.7,3.4,1.3,7.4,5.8,12
					c4.6,4.7,7.7,8.5,9.5,11.5c1.4,3.2,2.1,6.7,2.1,10.2c0,3.5-0.6,7.1-1.8,10.8c-1.5,6-5.3,9.3-11.4,9.8v0.1
					c-6.5-0.2-10.6-3.3-12.4-9.4c-1.2-4.3-2.1-8.8-2.7-13.5l9.8-1.4c0.3,1.8,0.6,3.9,1,6.6c0.6,4.3,1.8,6.4,3.9,6.6
					c1.4-0.3,2.4-2.6,2.9-6.7c1-4.6-0.6-8.9-4.9-13.1c-4.3-4.1-7.1-7.9-8.8-11.2c-2.5-4.4-3.5-9.3-2.9-14.8
					C-267.1,957.1-266.8,955.3-266.2,953.1z"/>
			</g>
			<g>
				<path fill="#FFFFFF" d="M-509.8,1050.7l2.8,2.1c-2.9,3.9-7.2,6-12,6c-8.3,0-15-6.7-15-15c0-8.3,6.7-14.9,15-14.9
					c4.7,0,9.2,2.2,12,6l-2.9,2.1c-2.2-2.9-5.5-4.6-9.2-4.6c-6.3,0-11.4,5.1-11.4,11.4s5.1,11.4,11.4,11.4
					C-515.4,1055.2-512,1053.6-509.8,1050.7z"/>
				<path fill="#FFFFFF" d="M-474.2,1043.8c0,8.3-6.7,14.9-15,14.9s-14.9-6.7-14.9-14.9s6.7-15,14.9-15
					C-480.9,1028.8-474.2,1035.6-474.2,1043.8z M-477.8,1043.8c0-6.3-5.1-11.4-11.3-11.4c-6.2,0-11.3,5.1-11.3,11.4
					c0,6.2,5.1,11.4,11.3,11.4C-482.9,1055.2-477.8,1050.1-477.8,1043.8z"/>
				<path fill="#FFFFFF" d="M-448.7,1029.7v18.2c0,6-4.9,10.9-10.9,10.9s-10.9-4.9-10.9-10.9v-18.2h3.5v18.2c0,4,3.3,7.4,7.3,7.4
					s7.3-3.4,7.3-7.4v-18.2H-448.7z"/>
				<path fill="#FFFFFF" d="M-438.7,1035.7v22.7h-3.6v-28.6h3.9l15.3,22.7v-22.7h3.6v28.6h-3.9L-438.7,1035.7z"/>
				<path fill="#FFFFFF" d="M-406.8,1033.3h-7.6v-3.5h18.7v3.5h-7.6v25.1h-3.6V1033.3z"/>
				<path fill="#FFFFFF" d="M-391.9,1029.7h9.2c8.1,0,14.7,6.4,14.7,14.3s-6.6,14.3-14.7,14.3h-9.2V1029.7z M-371.5,1044
					c0-5.9-5-10.8-11.1-10.8h-5.6v21.6h5.6C-376.6,1054.8-371.5,1049.9-371.5,1044z"/>
				<path fill="#FFFFFF" d="M-334.9,1043.8c0,8.3-6.7,14.9-15,14.9c-8.3,0-14.9-6.7-14.9-14.9s6.7-15,14.9-15
					C-341.7,1028.9-334.9,1035.6-334.9,1043.8z M-338.6,1043.8c0-6.3-5.1-11.4-11.3-11.4c-6.3,0-11.3,5.1-11.3,11.4
					c0,6.2,5.1,11.4,11.3,11.4C-343.7,1055.2-338.6,1050.1-338.6,1043.8z"/>
				<path fill="#FFFFFF" d="M-313.8,1043.6l-8.4,14.7h-3.9l-8-28.6h3.8l6.7,23.9l7.8-13.7h4l7.8,13.7l6.7-23.9h3.8l-8,28.6h-3.9
					L-313.8,1043.6z"/>
				<path fill="#FFFFFF" d="M-285.4,1035.7v22.7h-3.6v-28.6h3.9l15.3,22.7v-22.7h3.6v28.6h-3.9L-285.4,1035.7z"/>
				<path fill="#FFFFFF" d="M-252.8,1058.4c-3-0.6-5.9-2.1-8.5-4.3l2.4-2.7c2.2,1.8,4.5,3.1,6.8,3.5c2,0.4,4,0.2,5.5-0.4
					c1-0.5,2.9-1.7,2.9-4.1c0-3-3.2-4.1-6.3-4.7c-0.2-0.1-4.8-1-6.6-2c-2.4-1.4-3.7-3.6-3.7-6.3c0-1.4,0.5-2.9,1.4-4.1
					c0.8-1.1,2-2,3.4-2.7c2-1,4.4-1.3,6.7-0.8c2.6,0.4,5.2,1.7,7.6,3.6l-2.3,2.8c-4.1-3.5-8.2-3.5-10.5-2.4
					c-1.7,0.8-2.6,2.2-2.6,3.6c0,2.7,2.3,3.8,6,4.6c1.5,0.3,4.7,0.9,6.6,1.9c2.6,1.4,4,3.7,4,6.5c0,1.7-0.4,3.1-1.4,4.5
					c-0.8,1.2-2.2,2.2-3.5,2.9c-1.5,0.8-3.1,1-4.9,1C-250.9,1058.6-251.9,1058.5-252.8,1058.4z"/>
			</g>
		</g>
	</g>
</g>
</svg>
