<?xml version="1.0" encoding="utf-8"?>
<!-- Generator: Adobe Illustrator 19.1.0, SVG Export Plug-In . SVG Version: 6.00 Build 0)  -->
<svg version="1.1" xmlns="http://www.w3.org/2000/svg" xmlns:xlink="http://www.w3.org/1999/xlink" x="0px" y="0px"
	 viewBox="-693 867.2 612 267.8" enable-background="new -693 867.2 612 267.8" xml:space="preserve">
<g id="Calque_2_1_">
	<path opacity="0.3" fill="#FFFFFF" d="M-387,884.1c-64.6,0-117,52.4-117,117c0,64.6,52.4,117,117,117c64.6,0,117-52.4,117-117
		S-322.4,884.1-387,884.1z M-384,890.2c38.7,1,72.6,21.9,91.6,52.8l-7.9,4.6c-3-4.8-6.3-9.3-9.9-13.5l-9,7.8
		c-12.9-14.7-30.5-25.2-50.4-29.1l2.3-11.8c-5.4-1.1-11-1.6-16.7-1.8V890.2z M-390,890.2v9c-5.7,0.2-11.3,0.7-16.7,1.8l2.3,11.8
		c-19.9,3.9-37.6,14.4-50.4,29.1l-9-7.8c-3.7,4.2-7,8.8-9.9,13.5l-7.9-4.6C-462.5,912-428.7,891.2-390,890.2z M-498,1001.1
		c0-19.1,4.9-37.2,13.4-52.9l7.9,4.5c-2.7,4.9-5,10-6.9,15.4l11.4,3.8c-3.1,9.1-4.8,19-4.8,29.2c0,10.2,1.7,20,4.9,29.2l-11.3,3.8
		c1.8,5.3,4.1,10.4,6.8,15.3l-7.9,4.6C-493.2,1038.3-498,1020.2-498,1001.1z M-390,1112c-38.8-1-72.7-21.9-91.7-52.9l7.9-4.6
		c3,4.8,6.3,9.4,10,13.6l9-7.9c12.9,14.7,30.5,25.2,50.4,29.1l-2.3,11.8c5.4,1.1,11,1.7,16.7,1.9V1112z M-400.5,1069.4l6.6-33.1
		c-8-1.6-15-5.7-20.2-11.6l-25.4,22.2c-5.9-6.7-10.4-14.6-13.4-23.3l31.9-11c-1.3-3.7-2-7.5-2-11.6c0-4.1,0.7-8,2-11.6l-32-11
		c3-8.7,7.6-16.5,13.5-23.3l25.4,22.2c5.1-5.9,12.2-10.2,20.2-11.7l-6.6-33.1c4.4-0.9,8.9-1.3,13.5-1.3c4.6,0,9.1,0.5,13.5,1.3
		l-6.6,33.1c8,1.6,15,5.8,20.2,11.7l25.4-22.2c5.9,6.7,10.5,14.6,13.5,23.3l-32,11c1.2,3.6,2,7.6,2,11.6c0,4.1-0.7,8-2,11.6l31.9,11
		c-3,8.6-7.5,16.5-13.4,23.3l-25.4-22.2c-5.1,5.9-12.2,10.1-20.2,11.6l6.6,33.1c-4.4,0.9-8.9,1.4-13.5,1.4
		C-391.6,1070.9-396.1,1070.3-400.5,1069.4z M-384,1112v-9c5.7-0.2,11.3-0.8,16.7-1.9l-2.3-11.8c19.9-3.9,37.6-14.3,50.4-29.1l9,7.9
		c3.7-4.2,7.1-8.8,10-13.6l7.9,4.6C-311.3,1090.1-345.2,1111-384,1112z M-297.3,1049.4c2.6-4.9,4.9-10,6.8-15.3l-11.3-3.8
		c3.1-9.2,4.9-18.9,4.9-29.2c0-10.2-1.7-20-4.8-29.2l11.4-3.8c-1.8-5.4-4.2-10.5-6.9-15.4l7.9-4.5c8.5,15.7,13.4,33.7,13.4,52.9
		c0,19.1-4.9,37.2-13.4,52.9L-297.3,1049.4z"/>
</g>
<g id="Calque_1">
	<g>
		<g opacity="0.6">
			<path fill="#FFFFFF" d="M-468,965.2v42.8c0,5.3-1.3,9.5-3.5,12.6c-0.1,0.2-0.3,0.3-0.4,0.5c-1.7,1.3-3.8,2.1-6.2,2.2
				c-0.2,0-0.5,0-0.7,0c-3.2,0-5.8-1.2-7.7-3.8c-2.2-2.9-3.5-7-3.5-12.4v-43.6l-19,0.2l-2,2v44.5c0,11.1,3,19.7,8.9,25.5
				c5.4,5.2,12.1,7.9,20,7.9c0.8,0,1.5,0,2.3-0.1c8.6-0.5,15.7-3.9,21.2-9.9c0.8-0.7,1.6-1.5,2.4-2.4c5.5-6.1,8.2-14.7,8.2-25.4v-43
				l-18,0.2L-468,965.2z"/>
			<path fill="#FFFFFF" d="M-292,993.8v17.2c-2,0.7-3.7,1.1-5.9,1.3c-0.2,0-0.4,0-0.6,0c-3.1,0-5.7-1.4-8-4.2
				c-2.6-3.1-3.9-7.5-3.9-13c0-5.5,1.4-10.1,4.1-13.4c0.1-0.1,0.2-0.2,0.3-0.3c2.1-1.7,4.5-2.6,7.2-2.7l0.3,0c1.8,0,3.5,0.4,5,1.1
				c1.7,0.8,3.5,2.3,5.6,4.5l2.6,2.8l7.9-14.9l1.2-2.2l-1-1.1c-5.6-6.1-12.3-9.2-19.9-9.2l-0.3,0c-7.3,0.1-13.8,3.1-19.2,8.9
				c-1.2,1.1-2.3,2.2-3.4,3.5c-5.6,6.8-8.5,15.4-8.5,25.4c0,10,2.8,18.3,8.4,24.6c5.2,5.9,11.6,8.9,18.9,8.9c0.6,0,1.1,0,1.8-0.1
				c7.9-0.5,14.4-3.5,19.4-9c1.7-1.6,3.3-3.4,4.8-5.4l0.3-0.5v-24.7l-15,0.6L-292,993.8z"/>
			<path fill="#FFFFFF" d="M-524.8,998.6c-5.3-4.8-12.9-8.3-22.5-10.4c-11.5-2.6-15.9-4.4-17.6-5.5c-2.1-1.4-3.1-3.1-3.1-5.4
				c0-1.7,0.4-3.1,1.2-4.3c1.7-1.2,4.1-1.8,6.9-1.9l0.5,0c8.5,0,16.8,3.1,24.8,9.2l2.2,1.8l13.1-20.1l1.4-2.2l-1.3-1.1
				c-4.9-4.3-10.8-7.7-17.5-10.1c-6.7-2.4-13.6-3.6-20.5-3.6c-10.7,0-19.9,2.9-27.2,8.5c-1.5,1.1-2.8,2.4-4,3.7
				c-6.3,5.7-9.4,13.5-9.4,23.1c0,10.6,3.1,18.4,9.2,23.3c5.8,4.6,14.9,8.2,26.9,10.6c8.8,1.9,12.4,3.5,13.9,4.6
				c1.9,1.3,2.8,3.1,2.8,5.5c0,1.7-0.4,3.1-1.3,4.4c-1.9,1.4-4.6,2.2-7.8,2.4c-0.5,0-0.9,0-1.4,0c-8.3,0-17.6-4.3-27.7-12.7
				l-1.6-1.3l-18.4,23l1.4,1.2c12.4,10.7,26.2,16.2,41,16.2c1.5,0,2.9-0.1,4.4-0.2c11.2-0.8,20.4-4.4,27.3-10.8
				c0.6-0.6,1.2-1.2,1.8-1.8c0.1-0.1,0.1-0.1,0.2-0.2c6.8-6.4,10.3-14.4,10.3-24C-516.6,1010.8-519.3,1003.5-524.8,998.6z"/>
			<path fill="#FFFFFF" d="M-392.1,1008.9c4.6-4.4,7-11.2,7-20.1c0-8.9-2.3-15.6-6.8-19.9c-4.4-4.2-11.3-6.4-20.7-6.4
				c-0.3,0-0.5,0-0.8,0l-23.7,0.3l-2,2v76l18-1.1l2-2v-19.2l4-0.2c9.3-0.5,16.2-2.9,20.8-7.4c0.4-0.4,0.7-0.8,1.1-1.2
				C-392.8,1009.5-392.4,1009.2-392.1,1008.9z M-412.1,998.9l-6.9,0.3v-17.3l3.6-0.1c0.2,0,0.3,0,0.5,0c3.6,0,6.2,0.6,7.8,1.9
				c1.6,1.2,2.4,3.5,2.4,6.7c0,3-0.5,5.4-1.5,7.2C-407.5,998.3-409.5,998.8-412.1,998.9z"/>
			<path fill="#FFFFFF" d="M-364.6,961.9l-2,2l-26.9,73.6l18.1-1.1l2-2l5.1-14.2l19.3-1l5.4,15l17-1.1l2-2l-25.2-69.3L-364.6,961.9z
				 M-355.7,1000.6l-5.6,0.2l2.8-7.8L-355.7,1000.6z"/>
			<path fill="#FFFFFF" d="M-244.5,959l-0.3,0c-6.9,0.1-12.8,2.9-17.8,8.3c-1.2,1.1-2.4,2.4-3.5,3.8c-5.2,6.5-7.8,14.6-7.8,24.1
				c0,9.5,2.6,17.5,7.8,23.6c4.9,5.8,10.8,8.7,17.8,8.7c0.5,0,1.1,0,1.6-0.1c6.5-0.4,12-3.2,16.6-8.2c1.4-1.3,2.8-2.8,4-4.5
				c4.8-6.4,7.2-14.3,7.2-23.4c0-9.1-2.5-16.8-7.3-22.9C-231,962.2-237.2,959-244.5,959z M-244.9,1009.7c-0.2,0-0.4,0-0.5,0
				c-3,0-5.5-1.4-7.7-4.4c-2.5-3.3-3.7-7.5-3.7-12.5c0-5,1.3-9.4,3.7-12.9c0.3-0.4,0.5-0.8,0.8-1.1c1.7-1.3,3.5-2,5.5-2l0.2,0
				c3.1,0,5.7,1.5,7.9,4.6c2.4,3.3,3.6,7.5,3.6,12.4c0,4.9-1.2,9.2-3.6,12.7c-0.3,0.4-0.6,0.8-0.9,1.2
				C-241.1,1008.9-242.9,1009.6-244.9,1009.7z"/>
			<path fill="#FFFFFF" d="M-185,987.4l-2,2v15.7c-1,0.5-2.6,0.9-4.3,0.9c-0.1,0-0.2,0-0.3,0c-2.5,0-4.6-1.2-6.5-3.7
				c-2.1-2.8-3.2-6.8-3.2-11.9c0-5.1,1.1-9.2,3.4-12.3c0.1-0.2,0.3-0.4,0.4-0.6c1.6-1.2,3.3-1.8,5.2-1.9l0.2,0c1.5,0,2.8,0.3,4,0.9
				c1.4,0.7,2.9,2,4.6,4l2.7,3.2l6.7-13.9l0,0l1.3-2.5l-0.8-1c-4.8-5.7-10.5-8.6-17.1-8.6l-0.3,0c-6,0.1-11.2,2.6-15.7,7.5
				c-1.3,1.2-2.6,2.6-3.8,4.2c-4.7,6.3-7.1,14.1-7.1,23.2c0,9.2,2.4,16.8,7.1,22.6c4.4,5.5,9.9,8.3,16.3,8.3c0.5,0,1.1,0,1.5,0
				c6.1-0.4,12.5-3.9,17.1-8.6c1.4-1.4,2.8-3,3.9-4.9l0.5-0.5v-22.9L-185,987.4z"/>
		</g>
		<g>
			<path fill="#FFFFFF" d="M-488,1020.8c2.5,3.2,5.9,4.7,10.1,4.5c4.2-0.2,7.5-2.1,9.9-5.5c2.4-3.4,3.6-8,3.6-13.7v-40.8l14.4-0.2
				v40.9c0,10.3-2.6,18.3-7.7,24.1c-5.2,5.9-11.9,9.1-20.2,9.6c-8.4,0.5-15.3-1.9-20.8-7.3c-5.5-5.4-8.3-13.5-8.3-24.1v-42.5
				l15.3-0.2v41.6C-491.8,1013-490.5,1017.5-488,1020.8z"/>
			<g>
				<path fill="#FFFFFF" d="M-566.6,969.9c-2.2,1.9-3.3,4.3-3.3,7.3c0,3,1.3,5.4,4,7.1c2.7,1.7,8.7,3.6,18.2,5.8
					c9.3,2.1,16.5,5.4,21.6,10c5,4.5,7.5,11.3,7.5,20.2c0,9-3.2,16.5-9.7,22.5c-6.5,6.1-15.2,9.5-26,10.3c-16,1.1-30.6-4-43.9-15.5
					l13.9-17.9c11.1,9.3,21.2,13.6,30.4,13.1c4.1-0.2,7.3-1.3,9.6-3.2c2.3-1.9,3.4-4.4,3.4-7.5c0-3.1-1.2-5.4-3.7-7.1
					c-2.4-1.7-7.3-3.3-14.7-4.9c-11.8-2.4-20.5-5.8-26.1-10.2c-5.6-4.5-8.4-11.7-8.4-21.7c0-10,3.6-17.7,10.7-23.2
					c7-5.4,15.7-8.1,26-8.1c6.7,0,13.3,1.2,19.8,3.5c6.5,2.3,12.1,5.5,16.8,9.7l-10.9,16.6c-8.5-6.5-17.3-9.8-26.5-9.6
					C-561.4,967.1-564.4,968.1-566.6,969.9z"/>
				<path fill="#FFFFFF" d="M-393.4,970.4c4.1,4,6.2,10.1,6.2,18.5c0,8.4-2.1,14.6-6.3,18.6c-4.3,4.1-10.8,6.4-19.7,6.8l-8.1,0.4
					v21.2l-13.9,0.9v-71.8l21.8-0.3C-404.2,964.4-397.5,966.4-393.4,970.4z M-403.1,997.5c1.6-2.1,2.4-5.1,2.4-9.1
					c0-3.9-1-6.7-3.1-8.3c-2.1-1.6-5.4-2.4-9.8-2.3l-7.8,0.2v23.3l9.2-0.4C-407.7,1000.7-404.7,999.6-403.1,997.5z"/>
				<path fill="#FFFFFF" d="M-340.1,1030l-5.4-15l-23.4,1.2l-5.8,16.2l-13.8,0.9l25.3-69.4l12.1-0.2l23.8,65.5L-340.1,1030z
					 M-357.1,983.5l-7.1,19.5l14-0.6L-357.1,983.5z"/>
				<path fill="#FFFFFF" d="M-288,993.7l11.2-0.4v22c-4.9,7.2-11.8,11.1-20.6,11.6c-7.5,0.5-13.9-2.2-19.1-8.1
					c-5.3-6-7.9-13.7-7.9-23.3c0-9.6,2.7-17.6,8-24.1c5.3-6.4,11.7-9.7,19-9.8c7.3-0.1,13.5,2.8,18.8,8.6l-5.8,10.6
					c-2.2-2.4-4.3-4-6.2-4.9c-1.9-0.9-4-1.3-6.2-1.3c-4.3,0.1-8,2-11,5.8c-3,3.8-4.5,8.7-4.5,14.7s1.5,10.8,4.4,14.3
					c2.9,3.5,6.3,5.1,10.3,4.9c3.9-0.2,7.2-1.3,9.8-3.3V993.7z"/>
				<path fill="#FFFFFF" d="M-227.6,1013.6c-4.6,6.2-10.3,9.5-17.2,9.9c-7,0.4-12.9-2.2-17.7-8c-4.9-5.8-7.3-13.3-7.3-22.3
					c0-9.1,2.5-16.7,7.3-22.9c4.8-6.1,10.8-9.2,17.7-9.3c6.9-0.1,12.6,2.8,17.2,8.6c4.6,5.8,6.9,13,6.9,21.7
					C-220.7,1000-223,1007.4-227.6,1013.6z M-231.1,991.8c0-5.3-1.3-9.8-3.9-13.5c-2.6-3.7-5.9-5.5-9.8-5.5c-3.9,0.1-7.2,2.1-9.9,6
					c-2.7,3.9-4.1,8.6-4.1,14.1c0,5.5,1.4,10,4.1,13.7c2.7,3.7,6,5.4,9.9,5.2c3.9-0.2,7.2-2.3,9.8-6.1
					C-232.4,1001.7-231.1,997.1-231.1,991.8z"/>
				<path fill="#FFFFFF" d="M-182.9,989.3l9.4-0.4v20.2c-4.1,6.6-9.9,10.1-17.4,10.6c-6.3,0.4-11.7-2.1-16-7.5
					c-4.4-5.5-6.6-12.6-6.6-21.4c0-8.7,2.3-16.1,6.7-22c4.4-5.9,9.8-8.8,15.9-8.9c6.1-0.1,11.4,2.6,15.8,7.9l-4.8,9.7
					c-1.9-2.2-3.6-3.7-5.2-4.5c-1.6-0.8-3.3-1.2-5.2-1.2c-3.6,0.1-6.7,1.8-9.2,5.2c-2.5,3.4-3.8,7.9-3.8,13.4
					c0,5.5,1.2,9.9,3.6,13.1c2.4,3.2,5.3,4.7,8.6,4.5c3.3-0.2,6-1.2,8.2-3V989.3z"/>
			</g>
		</g>
		<g opacity="0.6">
			<path fill="#FFFFFF" d="M-238.8,1052.2c-0.4-0.4-0.6-0.9-0.6-1.5s0.2-1.1,0.6-1.5s0.9-0.6,1.5-0.6s1.1,0.2,1.5,0.6
				s0.6,0.9,0.6,1.5s-0.2,1.1-0.6,1.5s-0.9,0.6-1.5,0.6S-238.4,1052.6-238.8,1052.2z"/>
			<path fill="#FFFFFF" d="M-224,1049.3c1.8,0,3.3-0.7,4.5-2.2l2.4,2.5c-1.9,2.1-4.1,3.2-6.7,3.2s-4.7-0.8-6.4-2.4
				c-1.7-1.6-2.5-3.7-2.5-6.2c0-2.5,0.9-4.6,2.6-6.2s3.8-2.5,6.3-2.5c2.8,0,5.1,1,6.9,3.1l-2.3,2.6c-1.2-1.5-2.7-2.2-4.4-2.2
				c-1.4,0-2.6,0.5-3.6,1.4s-1.5,2.2-1.5,3.7c0,1.6,0.5,2.8,1.4,3.8C-226.5,1048.8-225.4,1049.3-224,1049.3z"/>
			<path fill="#FFFFFF" d="M-200.4,1050.3c-1.7,1.7-3.8,2.5-6.3,2.5c-2.5,0-4.6-0.8-6.3-2.5c-1.7-1.7-2.5-3.7-2.5-6.2
				s0.8-4.5,2.5-6.2c1.7-1.7,3.8-2.5,6.3-2.5c2.5,0,4.6,0.8,6.3,2.5s2.5,3.7,2.5,6.2S-198.7,1048.6-200.4,1050.3z M-201.7,1044.1
				c0-1.5-0.5-2.8-1.4-3.8c-1-1.1-2.1-1.6-3.5-1.6s-2.6,0.5-3.5,1.6c-1,1.1-1.4,2.3-1.4,3.8c0,1.5,0.5,2.8,1.4,3.8s2.1,1.6,3.5,1.6
				s2.6-0.5,3.5-1.6S-201.7,1045.6-201.7,1044.1z"/>
			<path fill="#FFFFFF" d="M-179.7,1042.1l-4.5,9.2h-2.2l-4.5-9.2v10.6h-3.7v-16.8h5.1l4.3,9.2l4.3-9.2h5v16.8h-3.7V1042.1z"/>
		</g>
	</g>
</g>
</svg>
